<?xml version="1.0" standalone="no"?>
<!DOCTYPE svg PUBLIC "-//W3C//DTD SVG 20010904//EN"
 "http://www.w3.org/TR/2001/REC-SVG-20010904/DTD/svg10.dtd">
<svg version="1.0" xmlns="http://www.w3.org/2000/svg"
 width="842.000000pt" height="806.000000pt" viewBox="0 0 842.000000 806.000000"
 preserveAspectRatio="xMidYMid meet">

<g transform="translate(0.000000,806.000000) scale(0.100000,-0.100000)"
fill="#000000" stroke="none">
<path d="M4731 6805 c-144 -41 -185 -122 -124 -246 31 -63 137 -172 234 -242
63 -44 234 -146 271 -159 14 -6 16 -25 17 -125 0 -84 6 -141 21 -198 57 -224
230 -452 415 -546 86 -43 90 -44 185 -44 95 0 98 1 152 37 31 20 69 57 87 84
29 44 37 66 56 148 l6 29 27 -25 c66 -61 69 -62 150 -11 42 27 72 52 72 62 0
27 -24 54 -153 169 l-122 109 -12 84 c-24 167 -40 192 -152 238 -117 49 -126
43 -96 -69 8 -30 15 -58 15 -62 0 -4 -46 23 -102 60 -57 37 -133 85 -170 107
-68 40 -68 40 -68 85 0 114 -53 231 -145 326 -148 150 -401 235 -564 189z
m292 -189 c65 -27 151 -158 135 -206 -3 -10 -160 81 -200 117 -28 25 -48 76
-36 90 14 17 60 16 101 -1z m651 -790 l148 -100 -5 -40 c-12 -85 -65 -120
-142 -91 -102 39 -209 194 -222 321 l-6 58 39 -24 c21 -13 106 -69 188 -124z"/>
<path d="M3855 6499 c-173 -78 -607 -297 -640 -323 l-29 -24 45 -73 c25 -41
124 -200 220 -354 259 -414 481 -785 714 -1190 54 -93 103 -173 109 -178 18
-12 51 0 128 47 40 24 168 98 283 166 513 301 515 302 515 328 0 21 -156 295
-181 317 -23 22 10 37 -319 -151 -118 -68 -222 -126 -231 -129 -13 -5 -47 43
-155 221 -77 125 -142 233 -146 240 -5 8 13 23 55 44 34 18 85 45 112 60 28
15 103 55 168 90 65 34 121 68 123 75 7 18 -6 41 -93 162 -41 57 -84 108 -96
115 -19 10 -50 -3 -245 -103 -123 -63 -227 -115 -230 -116 -4 -2 -29 30 -56
70 -27 39 -87 125 -133 189 -45 64 -83 119 -83 122 0 5 244 125 398 196 66 31
92 48 92 61 0 10 -36 56 -81 103 -63 67 -87 86 -108 85 -14 0 -75 -23 -136
-50z"/>
<path d="M2887 5993 c-161 -96 -168 -103 -148 -176 109 -411 160 -591 260
-910 27 -88 46 -155 41 -150 -59 65 -400 543 -537 751 -53 81 -101 150 -107
154 -13 8 -50 -14 -182 -109 -56 -40 -105 -80 -108 -90 -16 -41 263 -464 558
-843 153 -197 293 -365 508 -607 130 -147 176 -193 194 -193 37 0 297 154 308
182 6 17 1 46 -17 103 -120 379 -218 695 -275 890 -88 297 -120 408 -266 925
-35 126 -47 156 -62 158 -11 1 -86 -37 -167 -85z"/>
<path d="M6213 5344 c-71 -35 -113 -131 -113 -259 0 -170 93 -415 185 -487 26
-20 41 -23 123 -24 52 -1 98 -6 103 -11 17 -17 40 -121 42 -191 2 -73 -19
-122 -53 -122 -19 0 -40 45 -40 87 0 45 -29 39 -87 -20 l-56 -55 12 -64 c39
-199 127 -252 228 -138 29 33 62 102 79 165 29 106 11 374 -32 482 -42 105
-60 118 -166 115 -92 -3 -99 2 -135 100 -27 71 -33 149 -13 172 31 39 74 5
106 -84 10 -28 22 -50 26 -50 4 0 26 17 49 37 37 34 41 41 36 75 -6 42 -54
152 -88 200 -30 41 -106 88 -143 88 -17 0 -45 -8 -63 -16z"/>
<path d="M1814 5244 c-43 -36 -85 -72 -91 -81 -25 -33 -8 -409 32 -698 44
-317 136 -700 243 -1005 55 -159 113 -298 129 -311 13 -12 32 -5 130 46 l115
60 -5 35 c-3 19 -35 112 -71 205 -36 94 -66 177 -66 187 0 10 44 43 123 91
l122 76 18 -24 c10 -13 75 -91 145 -172 93 -109 134 -149 152 -151 17 -2 71
22 159 72 155 87 168 97 155 125 -5 11 -74 91 -153 178 -427 468 -787 953
-988 1330 -30 57 -58 103 -62 103 -4 0 -43 -29 -87 -66z m254 -789 c36 -66 89
-156 117 -200 28 -44 54 -85 58 -92 5 -8 -16 -28 -60 -57 -50 -34 -69 -42 -75
-33 -18 33 -149 538 -147 572 0 6 9 -8 20 -30 12 -22 50 -94 87 -160z"/>
<path d="M5823 5075 c-39 -25 -74 -52 -77 -61 -3 -8 26 -84 64 -168 39 -84 70
-157 70 -162 1 -18 35 -53 46 -46 13 8 94 235 94 262 0 35 -92 220 -110 220
-9 0 -48 -20 -87 -45z"/>
<path d="M5415 4802 c-51 -18 -394 -221 -415 -247 -9 -10 18 -73 129 -297 188
-381 283 -601 402 -925 24 -67 38 -93 50 -93 21 0 177 114 185 135 7 18 -39
175 -104 358 l-50 138 27 20 26 21 28 -34 c35 -41 190 -247 235 -311 37 -55
34 -56 135 28 38 32 67 64 67 75 0 25 -91 169 -198 313 l-88 119 24 71 c33 97
27 205 -17 326 -94 258 -251 367 -436 303z m158 -313 c36 -42 82 -150 93 -218
8 -52 -12 -85 -85 -137 l-58 -42 -82 181 -81 182 22 17 c39 30 102 58 130 58
19 0 37 -12 61 -41z"/>
<path d="M1259 4690 c-25 -27 -65 -79 -89 -115 l-43 -66 6 -127 c23 -446 186
-955 444 -1384 35 -60 69 -108 75 -108 5 0 49 19 96 43 156 76 199 147 189
306 -9 137 -17 161 -180 531 -73 166 -148 378 -197 556 -22 79 -40 148 -40
153 0 34 -66 185 -96 220 -31 36 -41 41 -77 41 -36 0 -46 -6 -88 -50z m65
-292 c8 -13 33 -99 56 -193 51 -209 113 -394 198 -590 127 -295 132 -322 71
-366 -17 -12 -32 -20 -33 -18 -12 13 -93 185 -139 294 -62 149 -115 299 -151
432 -36 128 -87 392 -80 406 12 21 47 57 56 57 4 0 14 -10 22 -22z"/>
<path d="M4718 4393 c-430 -253 -500 -295 -504 -308 -6 -14 15 -55 141 -275
39 -69 181 -318 315 -553 134 -236 249 -431 257 -434 13 -5 205 109 430 256
153 99 151 95 103 212 -16 41 -30 75 -30 77 0 11 -35 -8 -132 -71 -172 -112
-230 -148 -233 -145 -5 7 -145 280 -145 283 0 2 48 34 108 71 196 123 212 134
211 157 -1 36 -82 192 -102 195 -9 2 -87 -40 -173 -92 -85 -53 -158 -96 -162
-96 -8 1 -186 330 -180 334 2 2 84 51 183 111 99 59 188 116 197 127 17 19 15
24 -37 128 -31 59 -61 110 -69 113 -8 3 -88 -38 -178 -90z"/>
<path d="M3960 3951 c-85 -48 -227 -128 -315 -178 -242 -137 -260 -148 -263
-166 -5 -26 109 -206 135 -213 15 -4 52 11 123 51 57 31 108 54 115 52 6 -3
47 -61 90 -129 80 -127 291 -440 379 -563 149 -209 187 -255 209 -255 27 0
197 91 210 112 8 12 -27 73 -150 264 -148 231 -413 658 -443 713 -10 20 -10
25 1 32 8 4 59 34 114 66 55 32 101 66 103 75 3 17 -102 206 -122 220 -19 13
-28 9 -186 -81z"/>
<path d="M3058 3455 c-114 -37 -223 -141 -249 -238 -31 -115 21 -260 136 -385
140 -151 243 -181 527 -151 59 6 119 8 133 5 56 -14 175 -150 175 -200 0 -51
-124 -86 -188 -52 -15 8 -40 28 -56 45 -17 17 -37 31 -45 31 -23 0 -174 -61
-191 -77 -13 -13 -7 -22 51 -78 74 -70 138 -100 252 -118 162 -26 369 50 433
158 27 47 32 118 13 176 -33 96 -180 269 -267 313 -91 46 -149 52 -350 32
-157 -15 -183 -16 -214 -3 -41 17 -82 64 -116 134 -32 64 -24 96 28 124 73 39
132 18 203 -72 21 -27 43 -49 48 -49 20 0 230 111 235 125 3 7 -17 48 -45 89
-58 85 -131 146 -213 178 -70 27 -233 34 -300 13z"/>
<path d="M2475 3137 c-44 -23 -81 -49 -83 -58 -2 -9 34 -67 79 -130 165 -229
376 -474 552 -639 84 -79 99 -114 52 -126 -52 -13 -91 5 -177 80 -173 154
-349 348 -526 584 -63 85 -122 156 -130 160 -22 8 -147 -60 -146 -80 4 -44
310 -414 485 -583 258 -251 364 -310 559 -309 110 0 167 21 200 77 48 79 19
140 -154 317 -185 190 -308 338 -488 589 -114 160 -115 161 -131 161 -7 -1
-48 -20 -92 -43z"/>
<path d="M1801 2812 c-36 -15 -66 -33 -69 -40 -4 -14 62 -103 174 -232 199
-230 376 -389 614 -551 l65 -44 85 2 c187 3 198 50 47 198 -106 105 -210 185
-284 220 -33 16 -53 32 -53 43 -1 36 -40 101 -116 191 -178 213 -316 276 -463
213z m305 -237 c35 -35 71 -79 80 -96 15 -31 15 -33 -2 -46 -10 -7 -23 -13
-30 -13 -17 0 -194 194 -194 214 0 3 19 6 41 6 38 0 47 -6 105 -65z m350 -355
c85 -66 147 -128 139 -139 -3 -6 -18 -11 -33 -11 -28 0 -42 10 -185 129 -72
60 -77 66 -55 72 36 9 75 -6 134 -51z"/>
</g>
</svg>
