<svg id="svg" version="1.1" xmlns="http://www.w3.org/2000/svg" xmlns:xlink="http://www.w3.org/1999/xlink" width="400" height="400" viewBox="0, 0, 400,400"><g id="svgg"><path id="path0" d="M318.400 79.043 C 317.850 79.142,315.924 79.585,314.119 80.029 C 312.315 80.472,309.525 81.075,307.919 81.368 C 306.314 81.662,302.300 82.449,299.000 83.116 C 295.700 83.784,287.780 85.338,281.400 86.570 C 275.020 87.802,269.170 88.973,268.400 89.171 C 267.630 89.370,266.190 89.653,265.200 89.800 C 264.210 89.947,262.770 90.220,262.000 90.408 C 260.588 90.751,256.060 91.676,252.000 92.450 C 250.790 92.681,248.630 93.108,247.200 93.400 C 245.770 93.692,243.610 94.119,242.400 94.350 C 241.190 94.581,238.850 95.048,237.200 95.389 C 233.631 96.125,226.211 97.624,224.800 97.894 C 223.116 98.215,206.405 101.552,195.035 103.837 C 189.114 105.027,184.209 106.000,184.135 106.000 C 184.061 106.000,184.000 107.733,184.000 109.851 L 184.000 113.702 185.900 113.485 C 186.945 113.366,193.560 112.079,200.600 110.626 C 219.475 106.730,222.595 106.089,227.000 105.201 C 229.200 104.757,231.720 104.226,232.600 104.021 C 233.480 103.815,235.550 103.365,237.200 103.020 C 245.298 101.327,248.350 100.697,250.000 100.376 C 252.238 99.942,257.208 98.920,259.600 98.403 C 260.590 98.188,262.570 97.810,264.000 97.561 C 265.430 97.313,266.960 96.962,267.400 96.782 C 267.840 96.602,268.740 96.368,269.400 96.261 C 271.658 95.898,283.404 93.480,288.200 92.392 C 290.180 91.942,292.700 91.419,293.800 91.230 C 296.119 90.830,303.463 89.346,305.800 88.805 C 306.680 88.601,308.930 88.148,310.800 87.799 C 312.670 87.449,314.781 86.895,315.490 86.567 C 318.266 85.286,321.617 85.366,323.355 86.756 C 324.210 87.440,325.142 88.000,325.425 88.000 C 325.708 88.000,326.629 89.035,327.470 90.300 C 329.704 93.659,334.265 95.367,336.805 93.797 C 336.989 93.683,337.827 93.984,338.669 94.464 C 341.501 96.080,341.568 96.197,341.348 99.138 C 341.159 101.673,341.208 101.864,342.375 103.154 C 343.757 104.682,343.848 105.119,343.013 106.224 C 341.232 108.578,342.539 112.039,345.700 113.341 C 346.525 113.681,347.200 114.140,347.200 114.361 C 347.200 116.689,354.799 120.943,360.600 121.863 C 366.848 122.854,367.013 123.061,364.191 126.367 C 361.701 129.284,361.629 129.472,361.561 133.239 C 361.527 135.072,361.351 136.847,361.169 137.185 C 360.674 138.106,359.806 140.252,358.573 143.600 C 357.966 145.250,357.318 146.660,357.134 146.733 C 356.950 146.807,356.800 147.078,356.800 147.336 C 356.800 147.746,352.777 152.660,352.000 153.200 C 349.300 155.075,349.655 161.549,352.626 164.606 C 354.566 166.601,354.782 167.439,353.666 168.637 C 349.741 172.851,349.181 175.513,350.544 183.495 C 351.633 189.868,354.985 194.400,358.611 194.400 C 359.481 194.400,360.014 195.453,360.461 198.056 C 361.600 204.686,363.785 206.505,369.539 205.609 C 373.853 204.938,375.749 206.226,379.831 212.600 C 380.254 213.260,380.922 214.070,381.315 214.400 C 381.978 214.955,382.436 215.640,383.624 217.848 C 384.038 218.616,383.677 219.089,379.736 222.939 C 377.346 225.274,375.063 227.793,374.662 228.537 C 374.261 229.281,373.273 230.274,372.467 230.744 C 369.226 232.630,366.829 236.110,366.806 238.962 C 366.793 240.622,363.731 243.802,361.790 244.172 C 361.124 244.299,359.905 244.958,359.081 245.638 C 356.455 247.802,353.067 249.282,351.821 248.808 C 350.388 248.263,347.072 248.288,346.512 248.848 C 346.093 249.267,344.918 249.589,341.000 250.358 C 336.411 251.259,331.232 255.946,330.176 260.154 C 329.745 261.869,328.527 262.800,326.713 262.800 C 325.802 262.800,324.504 262.966,323.828 263.169 C 323.153 263.373,321.250 263.754,319.600 264.017 C 317.950 264.280,315.880 264.636,315.000 264.808 C 312.281 265.342,306.682 266.461,305.000 266.807 C 303.389 267.139,301.089 267.592,293.000 269.171 C 290.580 269.644,287.949 270.203,287.154 270.415 C 286.358 270.627,285.188 270.799,284.554 270.799 C 283.197 270.797,271.366 273.122,270.200 273.620 C 269.318 273.996,264.389 275.057,250.800 277.797 C 245.850 278.795,236.040 280.775,229.000 282.198 C 221.960 283.621,211.700 285.693,206.200 286.803 C 194.328 289.200,195.067 288.992,193.474 290.380 C 192.773 290.991,191.660 291.580,191.000 291.691 C 190.340 291.802,185.995 292.655,181.345 293.588 L 172.891 295.283 171.745 296.825 C 171.115 297.672,169.160 299.290,167.400 300.420 C 165.640 301.550,163.030 303.220,161.600 304.132 C 157.481 306.757,157.752 306.738,174.800 303.207 C 180.190 302.090,186.764 300.743,189.410 300.213 C 195.303 299.032,196.196 298.703,197.604 297.195 C 198.646 296.080,199.341 295.880,208.857 293.957 C 214.436 292.829,219.720 291.758,220.600 291.575 C 221.480 291.393,226.610 290.327,232.000 289.207 C 242.720 286.980,254.712 284.518,262.200 283.007 C 264.840 282.474,270.510 281.301,274.800 280.401 C 282.532 278.777,299.827 275.246,305.600 274.113 C 307.250 273.789,309.320 273.377,310.200 273.197 C 311.080 273.016,313.960 272.495,316.600 272.039 C 319.240 271.582,322.210 271.034,323.200 270.821 C 324.190 270.608,326.710 270.118,328.800 269.733 C 330.890 269.348,332.842 268.845,333.138 268.616 C 334.697 267.409,335.529 266.226,336.194 264.271 C 337.751 259.691,340.142 257.434,343.920 256.977 C 345.174 256.825,346.454 256.498,346.764 256.251 C 347.110 255.974,348.805 255.829,351.164 255.876 C 354.230 255.938,355.281 255.804,356.400 255.213 C 357.170 254.806,358.845 253.977,360.123 253.372 C 361.400 252.766,362.660 251.969,362.923 251.602 C 363.185 251.234,364.281 250.599,365.357 250.190 C 367.634 249.326,372.289 244.878,372.637 243.234 C 372.757 242.665,373.023 241.787,373.228 241.281 C 373.432 240.776,373.600 240.025,373.600 239.612 C 373.600 238.680,375.471 236.400,376.236 236.400 C 376.546 236.400,376.800 236.250,376.800 236.068 C 376.800 235.885,377.227 235.507,377.749 235.227 C 378.271 234.948,379.094 234.015,379.578 233.154 C 380.605 231.326,386.140 225.858,388.436 224.404 C 392.007 222.141,392.768 217.503,390.050 214.571 C 389.452 213.927,388.407 212.590,387.728 211.600 C 387.049 210.610,386.112 209.457,385.647 209.038 C 385.181 208.619,384.800 208.119,384.800 207.927 C 384.800 207.736,384.272 206.998,383.627 206.289 C 382.982 205.580,382.031 204.370,381.514 203.600 C 379.188 200.139,374.294 198.077,370.203 198.833 C 367.361 199.359,367.325 199.323,366.619 195.306 C 365.757 190.406,364.112 188.445,360.339 187.820 C 357.986 187.431,357.745 186.806,356.523 177.918 C 356.344 176.611,356.609 176.002,358.770 172.749 C 362.645 166.915,362.687 164.815,358.995 161.379 C 356.256 158.830,356.265 158.360,359.108 155.400 C 361.209 153.213,363.600 149.670,363.600 148.745 C 363.600 148.423,363.751 147.989,363.936 147.780 C 364.121 147.571,364.476 146.860,364.725 146.200 C 364.975 145.540,365.390 144.460,365.648 143.800 C 367.486 139.096,367.997 137.186,368.002 135.000 C 368.008 132.594,368.579 131.457,371.318 128.400 C 374.994 124.297,374.638 120.653,370.266 117.645 C 368.619 116.513,367.856 116.297,362.200 115.366 C 356.880 114.491,355.529 113.710,351.154 108.986 C 350.578 108.364,350.400 107.563,350.398 105.586 C 350.396 103.540,350.190 102.666,349.410 101.400 C 348.664 100.188,348.422 99.232,348.412 97.460 C 348.395 94.184,345.491 89.600,343.432 89.600 C 343.275 89.600,342.574 89.175,341.873 88.655 C 340.033 87.290,338.501 86.889,335.936 87.104 C 333.939 87.271,333.585 87.186,332.936 86.384 C 330.862 83.821,329.548 82.509,328.528 81.983 C 327.908 81.662,326.653 80.904,325.739 80.298 C 324.067 79.189,320.746 78.621,318.400 79.043 M293.000 101.843 C 285.080 103.459,277.610 104.963,276.400 105.185 C 275.190 105.407,272.850 105.870,271.200 106.214 C 268.194 106.841,267.346 107.006,261.400 108.130 C 254.800 109.378,252.677 111.515,253.380 116.204 C 253.689 118.266,255.380 119.988,260.000 122.945 C 261.650 124.001,264.670 125.928,266.711 127.227 C 271.541 130.302,271.564 129.689,266.329 137.413 C 263.838 141.089,259.952 146.820,257.694 150.148 C 252.892 157.227,252.648 157.873,253.407 161.503 C 254.305 165.796,257.153 168.325,260.513 167.816 C 262.247 167.553,262.394 167.620,267.676 171.069 C 271.138 173.330,271.620 173.790,271.997 175.189 C 272.874 178.445,275.472 180.305,278.507 179.847 C 279.438 179.707,280.920 179.483,281.800 179.351 C 284.731 178.910,285.343 178.202,293.679 165.636 C 294.932 163.746,296.107 162.020,296.289 161.800 C 296.471 161.580,297.408 160.140,298.371 158.600 C 299.334 157.060,300.274 155.740,300.461 155.667 C 300.647 155.593,300.800 155.369,300.800 155.168 C 300.800 154.627,303.618 150.800,304.016 150.800 C 304.311 150.800,305.954 151.639,309.006 153.349 C 309.449 153.597,310.349 154.176,311.006 154.635 C 311.663 155.094,312.488 155.573,312.841 155.700 C 313.194 155.826,314.748 156.741,316.296 157.733 C 317.843 158.725,319.625 159.578,320.255 159.629 C 325.669 160.063,328.582 157.081,327.608 152.101 C 327.403 151.055,326.053 144.440,324.607 137.400 C 323.161 130.360,321.625 122.800,321.193 120.600 C 320.762 118.400,320.233 115.880,320.017 115.000 C 319.802 114.120,319.272 111.509,318.840 109.198 C 317.660 102.888,317.366 102.364,313.785 100.208 C 310.620 98.302,310.182 98.336,293.000 101.843 M50.839 102.100 C 50.609 103.255,49.953 106.900,49.381 110.200 C 48.809 113.500,48.175 117.145,47.971 118.300 C 47.767 119.455,47.433 121.345,47.229 122.500 C 47.025 123.655,46.401 127.210,45.843 130.400 C 44.694 136.957,44.058 140.555,42.380 150.000 C 39.366 166.966,38.200 173.582,37.026 180.400 C 36.477 183.590,35.751 187.640,35.414 189.400 C 35.076 191.160,34.800 192.735,34.800 192.900 C 34.800 193.065,41.187 193.200,48.992 193.200 L 63.185 193.200 63.369 192.300 C 64.135 188.568,64.486 186.656,65.405 181.200 C 65.979 177.790,66.695 173.650,66.996 172.000 C 67.296 170.350,67.754 167.740,68.013 166.200 C 68.864 161.129,67.836 161.600,78.050 161.600 L 86.917 161.600 97.445 154.975 C 107.665 148.544,107.980 148.308,108.222 146.875 C 108.359 146.064,108.893 143.060,109.409 140.200 C 109.926 137.340,111.089 130.680,111.995 125.400 C 112.901 120.120,113.733 115.324,113.844 114.743 C 114.068 113.563,114.864 114.317,103.827 105.241 L 97.454 100.000 74.355 100.000 L 51.257 100.000 50.839 102.100 M133.055 100.312 C 132.887 100.584,119.760 136.455,115.604 148.000 C 114.773 150.310,112.973 155.260,111.606 159.000 C 110.238 162.740,108.434 167.690,107.595 170.000 C 106.757 172.310,105.318 176.270,104.398 178.800 C 103.478 181.330,102.574 183.850,102.390 184.400 C 102.020 185.500,99.845 191.385,99.394 192.505 C 99.126 193.172,99.869 193.205,113.022 193.105 L 126.934 193.000 127.839 190.200 C 128.336 188.660,129.550 184.880,130.535 181.800 L 132.327 176.200 140.463 176.200 C 145.658 176.200,148.580 176.345,148.545 176.600 C 148.514 176.820,148.360 180.647,148.203 185.105 L 147.917 193.211 161.659 193.105 L 175.400 193.000 175.312 181.600 C 175.219 169.613,174.586 132.080,174.137 111.900 L 173.871 100.000 153.559 100.000 C 142.388 100.000,133.161 100.140,133.055 100.312 M313.933 101.850 C 316.354 103.590,316.221 103.269,317.801 111.200 C 318.130 112.850,318.580 115.010,318.801 116.000 C 319.022 116.990,319.382 118.880,319.600 120.200 C 319.818 121.520,320.169 123.230,320.381 124.000 C 320.755 125.356,321.448 128.779,323.988 141.800 C 324.159 142.680,324.775 145.724,325.356 148.564 C 326.816 155.702,326.274 157.537,322.495 158.246 C 320.689 158.585,320.715 158.598,308.853 151.235 C 303.214 147.735,303.923 147.248,294.474 161.108 C 282.524 178.638,283.387 177.721,278.786 177.771 C 275.503 177.806,274.684 177.220,273.935 174.299 C 273.469 172.480,273.190 172.131,271.208 170.890 C 269.994 170.130,267.640 168.629,265.977 167.554 C 263.335 165.846,262.688 165.600,260.851 165.600 C 255.473 165.600,253.355 159.633,257.017 154.800 C 257.768 153.810,258.874 152.190,259.477 151.200 C 260.079 150.210,263.413 145.097,266.886 139.838 C 270.359 134.578,273.197 130.168,273.194 130.038 C 273.176 129.345,271.939 128.413,265.184 124.001 C 257.055 118.693,255.200 117.062,255.200 115.225 C 255.200 111.909,256.830 110.843,264.000 109.466 C 264.550 109.361,266.440 108.967,268.200 108.592 C 269.960 108.216,272.120 107.768,273.000 107.596 C 275.759 107.057,284.398 105.246,289.400 104.157 C 292.040 103.583,295.460 102.885,297.000 102.606 C 298.540 102.326,301.420 101.728,303.400 101.276 C 309.626 99.855,311.283 99.945,313.933 101.850 M296.400 106.907 C 289.030 108.405,281.650 109.874,280.000 110.174 C 274.628 111.148,262.242 113.621,260.500 114.068 C 257.717 114.782,257.668 114.729,266.200 120.260 C 268.180 121.544,269.980 122.685,270.200 122.797 C 274.126 124.790,276.732 127.250,277.003 129.221 L 277.285 131.270 271.350 140.135 C 268.086 145.011,265.277 149.060,265.107 149.133 C 264.938 149.207,264.800 149.412,264.800 149.591 C 264.800 149.769,263.450 151.921,261.800 154.374 C 257.739 160.410,257.718 162.040,261.703 161.948 C 263.701 161.902,264.191 162.062,265.981 163.348 C 267.092 164.147,268.066 164.800,268.145 164.800 C 269.552 164.800,276.795 170.590,277.011 171.887 C 277.400 174.227,277.507 174.400,278.561 174.400 C 280.839 174.400,281.443 173.726,288.129 163.732 C 291.784 158.269,295.895 152.153,297.266 150.141 L 299.759 146.482 302.748 145.778 L 305.737 145.074 307.768 146.195 C 308.886 146.812,311.579 148.387,313.753 149.695 C 321.301 154.239,322.847 154.898,322.204 153.300 C 322.049 152.915,321.023 148.190,319.922 142.800 C 318.822 137.410,317.238 129.670,316.402 125.600 C 315.566 121.530,314.502 116.310,314.038 114.000 C 311.760 102.657,313.626 103.407,296.400 106.907 M307.043 109.906 C 307.614 110.285,308.034 112.162,312.182 132.863 C 315.600 149.919,315.847 148.887,309.230 145.199 C 304.337 142.472,304.364 142.498,303.965 140.215 C 303.810 139.327,303.210 136.350,302.632 133.600 C 302.054 130.850,301.323 127.111,301.008 125.290 C 300.203 120.636,300.419 120.750,294.800 122.015 C 291.541 122.749,285.059 124.025,281.601 124.615 L 278.202 125.194 275.358 123.439 C 267.647 118.680,267.096 118.033,270.100 117.275 C 272.593 116.645,282.581 114.516,287.400 113.587 C 288.500 113.376,290.210 113.018,291.200 112.794 C 292.190 112.569,294.350 112.119,296.000 111.793 C 297.650 111.468,300.440 110.857,302.200 110.437 C 305.864 109.562,306.430 109.500,307.043 109.906 M219.400 117.202 C 212.140 118.689,202.960 120.553,199.000 121.346 C 182.876 124.572,184.400 124.064,184.400 126.215 C 184.400 128.533,182.458 128.782,211.200 122.786 C 215.490 121.891,219.900 120.990,221.000 120.784 C 222.100 120.577,224.699 120.053,226.775 119.618 L 230.549 118.827 231.875 119.646 C 232.604 120.097,233.200 120.508,233.200 120.561 C 233.200 120.613,233.570 122.354,234.023 124.428 C 234.476 126.503,234.994 129.010,235.174 130.000 C 235.465 131.601,236.967 139.011,242.358 165.457 C 243.217 169.669,244.029 173.460,244.163 173.883 C 244.332 174.417,243.645 175.800,241.903 178.426 L 239.400 182.200 235.400 183.058 C 232.873 183.600,231.158 183.788,230.742 183.567 C 229.452 182.881,224.063 179.226,223.862 178.901 C 223.687 178.617,220.775 164.895,220.021 160.800 C 219.768 159.428,219.598 159.648,211.371 172.000 L 202.978 184.600 200.389 185.056 C 198.965 185.308,195.802 185.924,193.360 186.427 L 188.921 187.341 187.684 186.460 C 187.004 185.976,186.335 185.224,186.197 184.790 C 185.677 183.151,185.200 184.099,185.200 186.771 C 185.200 190.586,186.414 191.801,189.609 191.186 C 195.617 190.029,205.379 187.937,205.703 187.736 C 205.913 187.606,208.693 183.543,211.879 178.707 C 215.066 173.870,217.819 170.068,217.997 170.257 C 218.176 170.445,218.794 173.010,219.371 175.955 C 219.948 178.900,220.521 181.472,220.644 181.671 C 221.111 182.427,229.940 188.000,230.671 188.000 C 231.402 188.000,240.341 186.193,241.600 185.791 C 241.930 185.685,243.577 183.484,245.259 180.900 L 248.319 176.200 247.776 173.400 C 247.477 171.860,246.316 166.190,245.195 160.800 C 244.074 155.410,242.917 149.740,242.623 148.200 C 242.329 146.660,241.620 143.150,241.046 140.400 C 240.472 137.650,239.106 130.994,238.011 125.609 C 236.302 117.211,235.889 115.718,235.109 115.118 C 233.905 114.190,234.485 114.113,219.400 117.202 M85.849 119.100 C 85.710 119.925,85.319 122.130,84.980 124.000 C 84.641 125.870,83.910 130.010,83.356 133.200 C 82.802 136.390,82.135 140.080,81.874 141.400 L 81.400 143.800 77.034 143.914 C 71.614 144.056,71.884 144.471,73.056 137.800 C 73.598 134.720,74.289 130.760,74.593 129.000 C 75.863 121.638,76.427 118.572,76.596 118.100 C 76.725 117.739,78.070 117.600,81.439 117.600 L 86.102 117.600 85.849 119.100 M150.997 123.200 C 150.991 128.214,149.993 154.884,149.743 156.700 L 149.509 158.400 143.555 158.400 C 140.201 158.400,137.600 158.239,137.600 158.032 C 137.600 157.830,138.788 153.555,140.239 148.532 C 141.691 143.510,142.973 139.040,143.087 138.600 C 143.202 138.160,143.997 135.370,144.855 132.400 C 145.713 129.430,146.697 126.010,147.043 124.800 C 148.501 119.693,148.358 119.944,149.738 120.078 L 151.000 120.200 150.997 123.200 M34.499 123.537 C 27.516 131.123,24.963 133.664,20.739 137.235 C 12.236 144.423,11.260 146.678,13.610 153.693 C 14.852 157.401,15.851 161.735,16.998 168.400 C 17.357 170.490,18.657 177.240,19.886 183.400 C 21.116 189.560,22.347 195.860,22.623 197.400 C 23.406 201.771,23.820 203.015,24.442 202.867 C 24.749 202.793,25.990 202.541,27.200 202.306 C 30.020 201.758,29.976 201.846,28.265 200.184 C 25.153 197.162,24.701 194.590,25.981 187.200 C 27.111 180.676,27.114 181.021,25.901 175.000 C 25.325 172.140,24.676 168.540,24.459 167.000 C 23.820 162.475,22.028 154.416,21.003 151.462 C 19.796 147.981,19.336 148.700,27.070 141.976 C 34.600 135.428,35.396 134.512,35.743 132.000 C 35.880 131.010,36.335 128.310,36.755 126.000 C 37.725 120.667,37.434 120.349,34.499 123.537 M213.000 129.061 C 207.280 130.247,201.250 131.471,199.600 131.782 C 194.964 132.653,188.383 134.008,186.500 134.479 L 184.800 134.904 184.800 138.252 C 184.800 140.093,184.963 141.600,185.163 141.600 C 185.489 141.600,196.875 139.327,201.745 138.290 C 203.536 137.909,203.856 137.966,205.799 139.018 L 207.909 140.159 211.454 139.421 C 219.616 137.722,220.005 137.940,221.407 144.994 C 222.209 149.029,222.513 149.892,223.348 150.500 C 226.062 152.478,225.933 152.163,227.820 161.400 C 228.809 166.240,229.724 170.685,229.854 171.277 C 230.080 172.303,232.514 174.400,233.480 174.400 C 233.720 174.400,234.498 173.494,235.209 172.386 C 236.782 169.934,236.851 170.722,233.797 156.200 C 233.196 153.340,232.618 150.550,232.513 150.000 C 229.635 134.963,228.011 127.896,227.313 127.366 C 226.187 126.512,224.095 126.760,213.000 129.061 M293.533 130.919 C 293.770 131.204,294.134 132.419,294.342 133.619 C 294.550 134.819,295.207 138.215,295.801 141.167 C 297.053 147.384,297.262 146.521,293.004 152.726 C 289.425 157.942,289.512 157.973,288.209 151.000 C 287.838 149.020,287.280 146.308,286.968 144.974 C 286.656 143.640,286.400 142.245,286.400 141.874 C 286.400 141.049,286.164 141.046,282.400 141.811 C 277.115 142.885,272.310 143.643,272.102 143.436 C 271.868 143.201,277.647 134.381,278.455 133.740 C 279.013 133.297,279.373 133.201,284.200 132.211 C 285.740 131.895,288.080 131.382,289.400 131.071 C 292.572 130.322,293.023 130.305,293.533 130.919 M212.000 141.745 C 210.245 142.200,210.088 142.381,205.699 148.972 C 200.598 156.635,200.711 156.196,203.992 155.601 C 207.641 154.940,209.022 155.939,209.798 159.800 C 210.350 162.545,210.368 162.529,215.310 155.049 L 219.693 148.414 219.197 145.707 C 218.386 141.289,216.905 140.473,212.000 141.745 M196.000 147.219 C 195.010 147.398,192.130 147.979,189.600 148.509 L 185.000 149.474 184.879 151.537 C 184.741 153.899,185.161 154.083,188.200 152.988 C 191.374 151.845,191.372 152.096,188.171 157.005 L 185.169 161.610 185.284 165.105 L 185.400 168.600 192.500 157.924 C 196.405 152.052,199.600 147.147,199.600 147.024 C 199.600 146.736,198.274 146.808,196.000 147.219 M281.288 150.600 C 281.476 151.260,281.909 153.240,282.252 155.000 C 282.594 156.760,283.033 159.010,283.227 160.000 C 283.420 160.990,283.750 162.497,283.958 163.349 C 284.412 165.203,284.306 165.510,282.024 168.935 C 280.166 171.724,279.200 172.293,279.200 170.600 C 279.200 169.494,278.347 168.487,276.472 167.379 C 275.113 166.576,274.589 165.529,274.178 162.800 C 273.812 160.367,273.302 159.473,272.469 159.803 C 270.074 160.753,266.756 160.858,265.174 160.033 C 264.295 159.575,263.131 159.200,262.588 159.200 C 261.294 159.200,261.292 159.210,263.500 155.565 C 265.788 151.790,265.122 152.148,272.800 150.567 C 274.450 150.227,276.430 149.797,277.200 149.612 C 279.781 148.990,280.908 149.262,281.288 150.600 M203.000 158.284 C 199.162 158.810,199.154 158.816,195.011 165.102 L 191.124 171.000 191.644 173.800 C 192.349 177.586,193.319 178.588,195.924 178.216 C 200.530 177.559,200.330 177.718,204.569 171.335 L 208.465 165.466 207.859 162.455 C 207.411 160.230,207.011 159.257,206.327 158.731 C 205.393 158.013,205.186 157.985,203.000 158.284 M295.400 179.486 C 292.533 180.176,292.434 180.214,287.600 182.496 C 251.923 199.340,264.411 254.800,303.881 254.800 C 309.317 254.800,316.000 253.085,320.800 250.457 C 321.790 249.915,322.960 249.276,323.400 249.036 C 323.840 248.796,324.290 248.509,324.400 248.398 C 324.510 248.286,325.320 247.667,326.200 247.020 C 349.740 229.729,342.305 189.181,314.000 180.480 C 308.785 178.877,299.903 178.402,295.400 179.486 M308.380 184.198 C 309.746 184.679,309.798 184.769,309.735 186.549 C 309.700 187.567,309.850 188.400,310.069 188.400 C 310.288 188.400,311.815 188.940,313.464 189.600 C 315.112 190.260,316.546 190.800,316.651 190.800 C 316.756 190.800,317.030 190.260,317.260 189.600 C 317.974 187.553,320.609 188.297,324.100 191.531 C 325.489 192.817,325.478 193.184,324.008 194.592 L 322.816 195.734 324.522 197.567 C 325.460 198.575,326.534 199.841,326.908 200.380 L 327.587 201.360 328.777 200.480 C 330.813 198.975,331.995 199.944,333.566 204.407 C 334.512 207.091,334.323 207.600,332.381 207.600 C 330.491 207.600,330.374 207.780,330.805 210.013 C 330.995 210.996,331.259 212.634,331.392 213.654 L 331.635 215.507 333.718 215.454 L 335.800 215.400 335.915 218.000 C 335.979 219.430,335.877 221.320,335.688 222.200 L 335.346 223.800 333.089 223.698 L 330.832 223.596 330.393 225.227 C 330.151 226.125,329.604 227.481,329.177 228.242 C 328.128 230.109,328.161 230.218,330.013 230.959 C 332.572 231.982,332.241 233.845,328.851 237.500 C 327.371 239.095,327.171 239.101,325.461 237.600 C 323.709 236.062,323.749 236.054,321.461 238.406 C 320.394 239.503,319.359 240.400,319.161 240.400 C 318.471 240.400,318.806 241.363,319.889 242.493 C 321.483 244.157,319.495 246.344,315.292 247.548 C 313.147 248.162,312.910 248.005,312.571 245.748 L 312.296 243.914 310.648 244.165 C 309.742 244.302,308.034 244.625,306.854 244.881 L 304.707 245.348 304.957 247.474 L 305.207 249.600 302.503 249.590 C 300.013 249.582,296.990 249.123,296.555 248.688 C 296.455 248.588,296.664 247.651,297.019 246.605 C 297.783 244.356,297.849 244.432,293.881 243.017 C 290.368 241.764,290.594 241.719,289.863 243.830 C 289.108 246.014,288.546 245.958,285.058 243.353 C 281.525 240.714,281.565 240.815,283.400 239.145 C 285.197 237.510,285.204 237.546,282.540 234.653 C 279.771 231.648,279.799 231.659,278.392 233.008 C 276.814 234.519,276.194 234.132,274.575 230.629 C 272.694 226.557,272.740 226.190,275.200 225.600 C 276.300 225.336,277.187 225.003,277.171 224.860 C 277.155 224.717,276.828 223.070,276.445 221.200 L 275.747 217.800 273.473 217.923 L 271.200 218.045 271.200 215.895 C 271.200 214.713,271.482 212.797,271.826 211.639 L 272.451 209.532 274.426 209.804 C 275.512 209.953,276.401 210.013,276.402 209.938 C 276.403 209.862,276.849 208.540,277.393 207.000 C 278.701 203.300,278.673 203.074,276.800 202.248 C 275.920 201.860,275.200 201.346,275.200 201.106 C 275.200 200.423,277.442 197.101,278.747 195.851 L 279.927 194.720 281.265 196.139 L 282.603 197.558 285.466 194.767 L 288.329 191.977 287.364 190.831 C 286.082 189.307,286.152 188.767,287.767 187.721 C 291.829 185.091,294.213 184.909,294.600 187.200 C 294.749 188.080,294.989 188.800,295.135 188.801 C 297.787 188.809,302.374 187.420,302.210 186.659 C 301.994 185.656,301.889 184.424,301.954 183.661 C 302.008 183.025,305.999 183.359,308.380 184.198 M307.458 193.381 C 305.071 195.594,306.648 199.600,309.906 199.600 C 312.118 199.600,313.200 198.472,313.200 196.166 C 313.200 192.759,309.871 191.145,307.458 193.381 M294.800 195.236 C 288.273 196.477,288.191 196.509,288.308 197.803 C 288.626 201.338,289.237 202.800,290.394 202.800 C 291.562 202.800,291.592 202.864,292.256 206.639 L 292.473 207.877 289.853 208.122 C 283.492 208.716,280.150 213.137,280.989 219.851 L 281.261 222.027 282.666 221.914 C 283.971 221.808,284.116 221.914,284.700 223.400 C 287.803 231.301,297.037 233.535,301.742 227.522 L 302.755 226.228 304.332 227.114 C 307.766 229.044,308.072 228.381,306.572 222.268 C 306.258 220.985,306.000 219.578,306.000 219.141 C 306.000 217.510,305.285 216.779,304.182 217.281 C 302.577 218.012,302.251 217.255,300.791 209.400 C 300.586 208.300,299.959 205.240,299.397 202.600 C 298.835 199.960,298.267 197.125,298.135 196.300 C 297.874 194.670,297.838 194.659,294.800 195.236 M237.000 204.811 C 228.640 206.525,219.820 208.317,217.400 208.793 C 211.260 210.000,211.250 210.006,206.631 214.860 C 201.653 220.093,202.076 218.231,202.019 235.154 L 201.973 248.907 203.286 247.749 C 204.009 247.112,206.730 244.478,209.334 241.896 C 214.721 236.553,214.778 236.524,214.862 239.100 C 214.897 240.145,214.970 241.450,215.026 242.000 C 215.082 242.550,215.166 243.859,215.214 244.908 C 215.346 247.773,215.479 247.697,222.076 241.010 C 229.340 233.647,229.073 233.741,229.286 238.500 C 229.482 242.888,229.632 242.535,225.038 248.516 C 223.037 251.121,221.040 253.776,220.600 254.417 C 219.698 255.731,219.974 255.655,205.452 258.577 C 200.640 259.545,196.577 260.486,196.422 260.668 C 189.575 268.743,189.073 269.507,190.900 269.073 C 191.395 268.956,200.440 267.127,211.000 265.008 C 234.970 260.200,232.139 261.192,237.370 255.760 C 241.536 251.433,241.754 251.122,242.026 249.110 C 242.473 245.800,242.490 221.600,242.045 221.600 C 241.834 221.600,239.071 224.196,235.905 227.370 C 232.718 230.564,229.960 233.019,229.725 232.870 C 229.493 232.721,229.172 230.665,229.013 228.300 C 228.853 225.935,228.547 223.891,228.332 223.758 C 228.118 223.626,225.182 226.256,221.809 229.604 C 214.768 236.592,214.800 236.587,214.800 230.753 L 214.800 227.453 219.462 221.293 C 222.026 217.905,224.509 214.987,224.981 214.807 C 225.452 214.628,230.345 213.569,235.853 212.453 C 241.362 211.338,246.171 210.309,246.541 210.167 C 247.242 209.898,253.600 202.466,253.600 201.915 C 253.600 201.422,253.097 201.510,237.000 204.811 M310.800 203.967 C 304.818 205.189,305.089 205.062,305.332 206.518 C 305.451 207.223,305.668 208.583,305.815 209.539 L 306.084 211.278 307.829 211.017 C 309.498 210.766,309.584 210.803,309.827 211.877 C 310.781 216.104,310.763 216.072,312.008 215.798 C 313.045 215.570,313.196 215.665,313.404 216.671 C 313.532 217.292,313.887 218.880,314.193 220.200 C 316.158 228.676,316.120 228.422,315.643 230.016 C 314.976 232.239,313.458 233.314,311.460 232.976 C 309.944 232.720,309.894 232.747,310.162 233.655 C 310.316 234.175,310.542 235.246,310.665 236.036 C 311.359 240.500,320.402 238.198,322.573 233.004 C 323.653 230.419,323.386 227.744,321.222 219.449 C 320.770 217.716,320.400 215.882,320.400 215.373 C 320.400 214.598,320.163 214.428,318.940 214.324 C 317.272 214.182,317.126 213.841,315.770 206.900 C 315.373 204.865,314.857 203.217,314.624 203.237 C 314.391 203.257,312.670 203.586,310.800 203.967 M29.237 213.300 C 29.007 214.455,28.443 217.560,27.986 220.200 C 27.529 222.840,26.998 225.900,26.806 227.000 C 25.434 234.892,19.898 266.275,19.011 271.200 C 18.674 273.070,17.503 279.730,16.409 286.000 C 15.314 292.270,14.145 298.840,13.809 300.600 C 13.474 302.360,13.200 303.937,13.200 304.105 C 13.200 304.273,19.633 304.363,27.495 304.305 L 41.790 304.200 42.073 302.400 C 42.371 300.502,43.140 296.062,44.153 290.400 C 44.488 288.530,45.140 284.840,45.603 282.200 C 46.066 279.560,46.845 275.150,47.335 272.400 L 48.226 267.400 53.581 267.288 C 60.010 267.153,59.849 267.036,59.038 271.260 C 58.686 273.097,57.678 278.740,56.800 283.800 C 55.127 293.438,54.216 298.505,53.580 301.720 C 53.371 302.776,53.200 303.813,53.200 304.025 C 53.200 304.267,58.301 304.371,66.895 304.305 L 80.590 304.200 80.865 302.400 C 81.016 301.410,81.601 297.990,82.166 294.800 C 82.730 291.610,83.633 286.480,84.173 283.400 C 84.712 280.320,85.451 276.180,85.815 274.200 C 86.179 272.220,86.569 269.784,86.681 268.786 L 86.885 266.972 83.143 264.411 C 81.084 263.002,78.344 261.085,77.054 260.150 L 74.708 258.449 76.854 257.097 C 78.034 256.353,81.468 254.317,84.485 252.572 C 87.503 250.827,90.065 249.168,90.179 248.884 C 90.378 248.391,91.696 241.085,93.982 227.800 C 94.515 224.703,94.543 224.915,93.500 224.034 C 91.134 222.036,82.343 214.747,80.284 213.078 L 77.969 211.200 53.813 211.200 L 29.657 211.200 29.237 213.300 M121.800 214.647 C 118.940 216.503,114.295 219.486,111.478 221.277 C 105.878 224.838,105.823 224.897,105.434 227.800 C 105.287 228.900,104.990 230.700,104.774 231.800 C 104.558 232.900,103.489 238.930,102.398 245.200 C 100.226 257.688,99.688 260.739,98.235 268.800 C 97.699 271.770,96.703 277.440,96.020 281.400 C 95.337 285.360,94.682 289.079,94.565 289.664 C 94.329 290.842,94.185 290.712,105.985 299.897 L 111.771 304.400 127.385 304.394 L 143.000 304.387 147.889 301.294 C 150.577 299.592,155.296 296.608,158.374 294.663 C 161.451 292.717,164.053 290.827,164.156 290.463 C 164.258 290.098,164.461 288.990,164.607 288.000 C 164.753 287.010,166.026 279.702,167.436 271.761 C 168.846 263.820,170.000 257.025,170.000 256.661 C 170.000 256.056,168.504 256.000,152.473 256.000 L 134.947 256.000 134.474 258.500 C 133.405 264.159,132.000 272.361,132.000 272.943 C 132.000 273.444,132.609 273.589,135.100 273.683 L 138.200 273.800 138.138 275.200 C 138.073 276.647,137.435 280.561,136.639 284.400 L 136.182 286.600 129.857 286.710 L 123.532 286.821 123.761 285.710 C 123.979 284.653,124.579 281.260,125.795 274.200 C 126.098 272.440,126.812 268.390,127.382 265.200 C 127.951 262.010,128.763 257.420,129.187 255.000 C 129.610 252.580,130.226 249.070,130.554 247.200 C 130.883 245.330,131.625 241.100,132.204 237.800 C 132.782 234.500,133.385 231.170,133.545 230.400 L 133.835 229.000 140.172 228.890 L 146.508 228.779 146.284 230.090 C 146.160 230.810,145.496 234.621,144.808 238.558 C 144.100 242.607,143.707 245.867,143.903 246.063 C 144.094 246.254,150.438 246.363,158.000 246.305 L 171.749 246.200 172.054 245.000 C 172.222 244.340,172.810 241.190,173.361 238.000 C 173.912 234.810,174.638 230.670,174.974 228.800 C 175.310 226.930,175.589 225.280,175.593 225.133 C 175.599 224.909,163.498 214.880,159.846 212.084 C 158.698 211.205,158.605 211.200,142.846 211.237 L 127.000 211.273 121.800 214.647 M293.904 215.700 C 294.367 216.195,294.932 217.090,295.160 217.690 C 295.519 218.638,295.768 218.768,297.086 218.690 L 298.600 218.600 298.504 220.170 C 298.268 224.029,294.205 224.701,292.149 221.222 C 291.616 220.320,291.113 220.011,290.025 219.920 C 288.618 219.801,288.600 219.778,288.639 218.033 C 288.706 215.040,291.942 213.606,293.904 215.700 M66.400 229.300 C 66.400 229.575,66.124 231.240,65.787 233.000 C 65.450 234.760,64.727 238.810,64.182 242.000 C 63.636 245.190,63.097 248.210,62.984 248.711 C 62.753 249.740,51.293 249.985,51.481 248.957 C 51.849 246.942,53.761 235.880,54.232 233.045 C 54.556 231.089,54.917 229.334,55.034 229.145 C 55.394 228.562,66.400 228.712,66.400 229.300 M101.400 309.902 C 99.387 310.289,86.709 312.875,84.200 313.410 C 82.660 313.738,79.600 314.366,77.400 314.804 C 75.200 315.243,71.690 315.944,69.600 316.363 C 55.867 319.115,54.528 319.047,53.587 315.553 C 53.242 314.269,52.994 314.000,52.159 314.000 C 51.603 314.000,50.261 313.618,49.177 313.152 C 47.199 312.301,45.200 312.716,45.200 313.979 C 45.200 315.453,46.365 318.943,47.415 320.614 C 51.502 327.119,55.699 327.451,77.600 323.000 C 81.230 322.262,90.140 320.451,97.400 318.975 C 104.660 317.499,112.118 315.992,113.973 315.626 C 118.800 314.673,118.673 314.000,113.666 314.000 C 109.214 314.000,107.162 313.380,104.759 311.307 C 103.205 309.967,102.529 309.684,101.400 309.902 " stroke="none" fill="#2c7b6d" fill-rule="evenodd"></path><path id="path1" d="M0.000 200.000 L 0.000 400.000 200.000 400.000 L 400.000 400.000 400.000 200.000 L 400.000 0.000 200.000 0.000 L 0.000 0.000 0.000 200.000 M325.739 80.298 C 326.653 80.904,327.908 81.662,328.528 81.983 C 329.548 82.509,330.862 83.821,332.936 86.384 C 333.585 87.186,333.939 87.271,335.936 87.104 C 338.501 86.889,340.033 87.290,341.873 88.655 C 342.574 89.175,343.275 89.600,343.432 89.600 C 345.491 89.600,348.395 94.184,348.412 97.460 C 348.422 99.232,348.664 100.188,349.410 101.400 C 350.190 102.666,350.396 103.540,350.398 105.586 C 350.400 107.563,350.578 108.364,351.154 108.986 C 355.529 113.710,356.880 114.491,362.200 115.366 C 367.856 116.297,368.619 116.513,370.266 117.645 C 374.638 120.653,374.994 124.297,371.318 128.400 C 368.579 131.457,368.008 132.594,368.002 135.000 C 367.997 137.186,367.486 139.096,365.648 143.800 C 365.390 144.460,364.975 145.540,364.725 146.200 C 364.476 146.860,364.121 147.571,363.936 147.780 C 363.751 147.989,363.600 148.423,363.600 148.745 C 363.600 149.670,361.209 153.213,359.108 155.400 C 356.265 158.360,356.256 158.830,358.995 161.379 C 362.687 164.815,362.645 166.915,358.770 172.749 C 356.609 176.002,356.344 176.611,356.523 177.918 C 357.745 186.806,357.986 187.431,360.339 187.820 C 364.112 188.445,365.757 190.406,366.619 195.306 C 367.325 199.323,367.361 199.359,370.203 198.833 C 374.294 198.077,379.188 200.139,381.514 203.600 C 382.031 204.370,382.982 205.580,383.627 206.289 C 384.272 206.998,384.800 207.736,384.800 207.927 C 384.800 208.119,385.181 208.619,385.647 209.038 C 386.112 209.457,387.049 210.610,387.728 211.600 C 388.407 212.590,389.452 213.927,390.050 214.571 C 392.768 217.503,392.007 222.141,388.436 224.404 C 386.140 225.858,380.605 231.326,379.578 233.154 C 379.094 234.015,378.271 234.948,377.749 235.227 C 377.227 235.507,376.800 235.885,376.800 236.068 C 376.800 236.250,376.546 236.400,376.236 236.400 C 375.471 236.400,373.600 238.680,373.600 239.612 C 373.600 240.025,373.432 240.776,373.228 241.281 C 373.023 241.787,372.757 242.665,372.637 243.234 C 372.289 244.878,367.634 249.326,365.357 250.190 C 364.281 250.599,363.185 251.234,362.923 251.602 C 362.660 251.969,361.400 252.766,360.123 253.372 C 358.845 253.977,357.170 254.806,356.400 255.213 C 355.281 255.804,354.230 255.938,351.164 255.876 C 348.805 255.829,347.110 255.974,346.764 256.251 C 346.454 256.498,345.174 256.825,343.920 256.977 C 340.142 257.434,337.751 259.691,336.194 264.271 C 335.529 266.226,334.697 267.409,333.138 268.616 C 332.842 268.845,330.890 269.348,328.800 269.733 C 326.710 270.118,324.190 270.608,323.200 270.821 C 322.210 271.034,319.240 271.582,316.600 272.039 C 313.960 272.495,311.080 273.016,310.200 273.197 C 309.320 273.377,307.250 273.789,305.600 274.113 C 299.827 275.246,282.532 278.777,274.800 280.401 C 270.510 281.301,264.840 282.474,262.200 283.007 C 254.712 284.518,242.720 286.980,232.000 289.207 C 226.610 290.327,221.480 291.393,220.600 291.575 C 219.720 291.758,214.436 292.829,208.857 293.957 C 199.341 295.880,198.646 296.080,197.604 297.195 C 196.196 298.703,195.303 299.032,189.410 300.213 C 186.764 300.743,180.190 302.090,174.800 303.207 C 157.752 306.738,157.481 306.757,161.600 304.132 C 163.030 303.220,165.640 301.550,167.400 300.420 C 169.160 299.290,171.115 297.672,171.745 296.825 L 172.891 295.283 181.345 293.588 C 185.995 292.655,190.340 291.802,191.000 291.691 C 191.660 291.580,192.773 290.991,193.474 290.380 C 195.067 288.992,194.328 289.200,206.200 286.803 C 211.700 285.693,221.960 283.621,229.000 282.198 C 236.040 280.775,245.850 278.795,250.800 277.797 C 264.389 275.057,269.318 273.996,270.200 273.620 C 271.366 273.122,283.197 270.797,284.554 270.799 C 285.188 270.799,286.358 270.627,287.154 270.415 C 287.949 270.203,290.580 269.644,293.000 269.171 C 301.089 267.592,303.389 267.139,305.000 266.807 C 306.682 266.461,312.281 265.342,315.000 264.808 C 315.880 264.636,317.950 264.280,319.600 264.017 C 321.250 263.754,323.153 263.373,323.828 263.169 C 324.504 262.966,325.802 262.800,326.713 262.800 C 328.527 262.800,329.745 261.869,330.176 260.154 C 331.232 255.946,336.411 251.259,341.000 250.358 C 344.918 249.589,346.093 249.267,346.512 248.848 C 347.072 248.288,350.388 248.263,351.821 248.808 C 353.067 249.282,356.455 247.802,359.081 245.638 C 359.905 244.958,361.124 244.299,361.790 244.172 C 363.731 243.802,366.793 240.622,366.806 238.962 C 366.829 236.110,369.226 232.630,372.467 230.744 C 373.273 230.274,374.261 229.281,374.662 228.537 C 375.063 227.793,377.346 225.274,379.736 222.939 C 383.677 219.089,384.038 218.616,383.624 217.848 C 382.436 215.640,381.978 214.955,381.315 214.400 C 380.922 214.070,380.254 213.260,379.831 212.600 C 375.749 206.226,373.853 204.938,369.539 205.609 C 363.785 206.505,361.600 204.686,360.461 198.056 C 360.014 195.453,359.481 194.400,358.611 194.400 C 354.985 194.400,351.633 189.868,350.544 183.495 C 349.181 175.513,349.741 172.851,353.666 168.637 C 354.782 167.439,354.566 166.601,352.626 164.606 C 349.655 161.549,349.300 155.075,352.000 153.200 C 352.777 152.660,356.800 147.746,356.800 147.336 C 356.800 147.078,356.950 146.807,357.134 146.733 C 357.318 146.660,357.966 145.250,358.573 143.600 C 359.806 140.252,360.674 138.106,361.169 137.185 C 361.351 136.847,361.527 135.072,361.561 133.239 C 361.629 129.472,361.701 129.284,364.191 126.367 C 367.013 123.061,366.848 122.854,360.600 121.863 C 354.799 120.943,347.200 116.689,347.200 114.361 C 347.200 114.140,346.525 113.681,345.700 113.341 C 342.539 112.039,341.232 108.578,343.013 106.224 C 343.848 105.119,343.757 104.682,342.375 103.154 C 341.208 101.864,341.159 101.673,341.348 99.138 C 341.568 96.197,341.501 96.080,338.669 94.464 C 337.827 93.984,336.989 93.683,336.805 93.797 C 334.265 95.367,329.704 93.659,327.470 90.300 C 326.629 89.035,325.708 88.000,325.425 88.000 C 325.142 88.000,324.210 87.440,323.355 86.756 C 321.617 85.366,318.266 85.286,315.490 86.567 C 314.781 86.895,312.670 87.449,310.800 87.799 C 308.930 88.148,306.680 88.601,305.800 88.805 C 303.463 89.346,296.119 90.830,293.800 91.230 C 292.700 91.419,290.180 91.942,288.200 92.392 C 283.404 93.480,271.658 95.898,269.400 96.261 C 268.740 96.368,267.840 96.602,267.400 96.782 C 266.960 96.962,265.430 97.313,264.000 97.561 C 262.570 97.810,260.590 98.188,259.600 98.403 C 257.208 98.920,252.238 99.942,250.000 100.376 C 248.350 100.697,245.298 101.327,237.200 103.020 C 235.550 103.365,233.480 103.815,232.600 104.021 C 231.720 104.226,229.200 104.757,227.000 105.201 C 222.595 106.089,219.475 106.730,200.600 110.626 C 193.560 112.079,186.945 113.366,185.900 113.485 L 184.000 113.702 184.000 109.851 C 184.000 107.733,184.061 106.000,184.135 106.000 C 184.209 106.000,189.114 105.027,195.035 103.837 C 206.405 101.552,223.116 98.215,224.800 97.894 C 226.211 97.624,233.631 96.125,237.200 95.389 C 238.850 95.048,241.190 94.581,242.400 94.350 C 243.610 94.119,245.770 93.692,247.200 93.400 C 248.630 93.108,250.790 92.681,252.000 92.450 C 256.060 91.676,260.588 90.751,262.000 90.408 C 262.770 90.220,264.210 89.947,265.200 89.800 C 266.190 89.653,267.630 89.370,268.400 89.171 C 269.170 88.973,275.020 87.802,281.400 86.570 C 287.780 85.338,295.700 83.784,299.000 83.116 C 302.300 82.449,306.314 81.662,307.919 81.368 C 309.525 81.075,312.315 80.472,314.119 80.029 C 320.385 78.490,323.109 78.553,325.739 80.298 M313.785 100.208 C 317.366 102.364,317.660 102.888,318.840 109.198 C 319.272 111.509,319.802 114.120,320.017 115.000 C 320.233 115.880,320.762 118.400,321.193 120.600 C 321.625 122.800,323.161 130.360,324.607 137.400 C 326.053 144.440,327.403 151.055,327.608 152.101 C 328.582 157.081,325.669 160.063,320.255 159.629 C 319.625 159.578,317.843 158.725,316.296 157.733 C 314.748 156.741,313.194 155.826,312.841 155.700 C 312.488 155.573,311.663 155.094,311.006 154.635 C 310.349 154.176,309.449 153.597,309.006 153.349 C 305.954 151.639,304.311 150.800,304.016 150.800 C 303.618 150.800,300.800 154.627,300.800 155.168 C 300.800 155.369,300.647 155.593,300.461 155.667 C 300.274 155.740,299.334 157.060,298.371 158.600 C 297.408 160.140,296.471 161.580,296.289 161.800 C 296.107 162.020,294.932 163.746,293.679 165.636 C 285.343 178.202,284.731 178.910,281.800 179.351 C 280.920 179.483,279.438 179.707,278.507 179.847 C 275.472 180.305,272.874 178.445,271.997 175.189 C 271.620 173.790,271.138 173.330,267.676 171.069 C 262.394 167.620,262.247 167.553,260.513 167.816 C 257.153 168.325,254.305 165.796,253.407 161.503 C 252.648 157.873,252.892 157.227,257.694 150.148 C 259.952 146.820,263.838 141.089,266.329 137.413 C 271.564 129.689,271.541 130.302,266.711 127.227 C 264.670 125.928,261.650 124.001,260.000 122.945 C 250.035 116.567,250.640 110.164,261.400 108.130 C 267.346 107.006,268.194 106.841,271.200 106.214 C 272.850 105.870,275.190 105.407,276.400 105.185 C 277.610 104.963,285.080 103.459,293.000 101.843 C 310.182 98.336,310.620 98.302,313.785 100.208 M103.827 105.241 C 114.864 114.317,114.068 113.563,113.844 114.743 C 113.733 115.324,112.901 120.120,111.995 125.400 C 111.089 130.680,109.926 137.340,109.409 140.200 C 108.893 143.060,108.359 146.064,108.222 146.875 C 107.980 148.308,107.665 148.544,97.445 154.975 L 86.917 161.600 78.050 161.600 C 67.836 161.600,68.864 161.129,68.013 166.200 C 67.754 167.740,67.296 170.350,66.996 172.000 C 66.695 173.650,65.979 177.790,65.405 181.200 C 64.486 186.656,64.135 188.568,63.369 192.300 L 63.185 193.200 48.992 193.200 C 41.187 193.200,34.800 193.065,34.800 192.900 C 34.800 192.735,35.076 191.160,35.414 189.400 C 35.751 187.640,36.477 183.590,37.026 180.400 C 38.200 173.582,39.366 166.966,42.380 150.000 C 44.058 140.555,44.694 136.957,45.843 130.400 C 46.401 127.210,47.025 123.655,47.229 122.500 C 47.433 121.345,47.767 119.455,47.971 118.300 C 48.175 117.145,48.809 113.500,49.381 110.200 C 49.953 106.900,50.609 103.255,50.839 102.100 L 51.257 100.000 74.355 100.000 L 97.454 100.000 103.827 105.241 M174.137 111.900 C 174.586 132.080,175.219 169.613,175.312 181.600 L 175.400 193.000 161.659 193.105 L 147.917 193.211 148.203 185.105 C 148.360 180.647,148.514 176.820,148.545 176.600 C 148.580 176.345,145.658 176.200,140.463 176.200 L 132.327 176.200 130.535 181.800 C 129.550 184.880,128.336 188.660,127.839 190.200 L 126.934 193.000 113.022 193.105 C 99.869 193.205,99.126 193.172,99.394 192.505 C 99.845 191.385,102.020 185.500,102.390 184.400 C 102.574 183.850,103.478 181.330,104.398 178.800 C 105.318 176.270,106.757 172.310,107.595 170.000 C 108.434 167.690,110.238 162.740,111.606 159.000 C 112.973 155.260,114.773 150.310,115.604 148.000 C 119.760 136.455,132.887 100.584,133.055 100.312 C 133.161 100.140,142.388 100.000,153.559 100.000 L 173.871 100.000 174.137 111.900 M308.400 100.324 C 307.630 100.396,305.380 100.824,303.400 101.276 C 301.420 101.728,298.540 102.326,297.000 102.606 C 295.460 102.885,292.040 103.583,289.400 104.157 C 284.398 105.246,275.759 107.057,273.000 107.596 C 272.120 107.768,269.960 108.216,268.200 108.592 C 266.440 108.967,264.550 109.361,264.000 109.466 C 256.830 110.843,255.200 111.909,255.200 115.225 C 255.200 117.062,257.055 118.693,265.184 124.001 C 271.939 128.413,273.176 129.345,273.194 130.038 C 273.197 130.168,270.359 134.578,266.886 139.838 C 263.413 145.097,260.079 150.210,259.477 151.200 C 258.874 152.190,257.768 153.810,257.017 154.800 C 253.355 159.633,255.473 165.600,260.851 165.600 C 262.688 165.600,263.335 165.846,265.977 167.554 C 267.640 168.629,269.994 170.130,271.208 170.890 C 273.190 172.131,273.469 172.480,273.935 174.299 C 274.684 177.220,275.503 177.806,278.786 177.771 C 282.740 177.728,283.560 177.097,287.874 170.780 C 289.895 167.821,292.865 163.469,294.474 161.108 C 303.923 147.248,303.214 147.735,308.853 151.235 C 320.715 158.598,320.689 158.585,322.495 158.246 C 326.274 157.537,326.816 155.702,325.356 148.564 C 324.775 145.724,324.159 142.680,323.988 141.800 C 321.448 128.779,320.755 125.356,320.381 124.000 C 320.169 123.230,319.818 121.520,319.600 120.200 C 319.382 118.880,319.022 116.990,318.801 116.000 C 318.580 115.010,318.130 112.850,317.801 111.200 C 316.221 103.269,316.354 103.590,313.933 101.850 C 312.168 100.581,310.522 100.127,308.400 100.324 M312.734 107.702 C 312.987 108.856,313.574 111.690,314.038 114.000 C 314.502 116.310,315.566 121.530,316.402 125.600 C 317.238 129.670,318.822 137.410,319.922 142.800 C 321.023 148.190,322.049 152.915,322.204 153.300 C 322.847 154.898,321.301 154.239,313.753 149.695 C 311.579 148.387,308.886 146.812,307.768 146.195 L 305.737 145.074 302.748 145.778 L 299.759 146.482 297.266 150.141 C 295.895 152.153,291.784 158.269,288.129 163.732 C 281.443 173.726,280.839 174.400,278.561 174.400 C 277.507 174.400,277.400 174.227,277.011 171.887 C 276.795 170.590,269.552 164.800,268.145 164.800 C 268.066 164.800,267.092 164.147,265.981 163.348 C 264.191 162.062,263.701 161.902,261.703 161.948 C 257.718 162.040,257.739 160.410,261.800 154.374 C 263.450 151.921,264.800 149.769,264.800 149.591 C 264.800 149.412,264.938 149.207,265.107 149.133 C 265.277 149.060,268.086 145.011,271.350 140.135 L 277.285 131.270 277.003 129.221 C 276.732 127.250,274.126 124.790,270.200 122.797 C 269.980 122.685,268.180 121.544,266.200 120.260 C 257.668 114.729,257.717 114.782,260.500 114.068 C 262.242 113.621,274.628 111.148,280.000 110.174 C 281.650 109.874,289.030 108.405,296.400 106.907 C 312.069 103.724,311.858 103.714,312.734 107.702 M302.200 110.437 C 300.440 110.857,297.650 111.468,296.000 111.793 C 294.350 112.119,292.190 112.569,291.200 112.794 C 290.210 113.018,288.500 113.376,287.400 113.587 C 282.581 114.516,272.593 116.645,270.100 117.275 C 267.096 118.033,267.647 118.680,275.358 123.439 L 278.202 125.194 281.601 124.615 C 285.059 124.025,291.541 122.749,294.800 122.015 C 300.419 120.750,300.203 120.636,301.008 125.290 C 301.323 127.111,302.054 130.850,302.632 133.600 C 303.210 136.350,303.810 139.327,303.965 140.215 C 304.364 142.498,304.337 142.472,309.230 145.199 C 313.536 147.598,314.800 147.911,314.800 146.575 C 314.800 145.724,309.686 120.139,307.929 112.200 C 307.280 109.268,307.199 109.243,302.200 110.437 M235.109 115.118 C 235.889 115.718,236.302 117.211,238.011 125.609 C 239.106 130.994,240.472 137.650,241.046 140.400 C 241.620 143.150,242.329 146.660,242.623 148.200 C 242.917 149.740,244.074 155.410,245.195 160.800 C 246.316 166.190,247.477 171.860,247.776 173.400 L 248.319 176.200 245.259 180.900 C 243.577 183.484,241.930 185.685,241.600 185.791 C 240.341 186.193,231.402 188.000,230.671 188.000 C 229.940 188.000,221.111 182.427,220.644 181.671 C 220.521 181.472,219.948 178.900,219.371 175.955 C 218.794 173.010,218.176 170.445,217.997 170.257 C 217.819 170.068,215.066 173.870,211.879 178.707 C 208.693 183.543,205.913 187.606,205.703 187.736 C 205.379 187.937,195.617 190.029,189.609 191.186 C 186.414 191.801,185.200 190.586,185.200 186.771 C 185.200 184.099,185.677 183.151,186.197 184.790 C 186.335 185.224,187.004 185.976,187.684 186.460 L 188.921 187.341 193.360 186.427 C 195.802 185.924,198.965 185.308,200.389 185.056 L 202.978 184.600 211.371 172.000 C 219.598 159.648,219.768 159.428,220.021 160.800 C 220.775 164.895,223.687 178.617,223.862 178.901 C 224.063 179.226,229.452 182.881,230.742 183.567 C 231.158 183.788,232.873 183.600,235.400 183.058 L 239.400 182.200 241.903 178.426 C 243.645 175.800,244.332 174.417,244.163 173.883 C 244.029 173.460,243.217 169.669,242.358 165.457 C 236.967 139.011,235.465 131.601,235.174 130.000 C 234.994 129.010,234.476 126.503,234.023 124.428 C 233.570 122.354,233.200 120.613,233.200 120.561 C 233.200 120.508,232.604 120.097,231.875 119.646 L 230.549 118.827 226.775 119.618 C 224.699 120.053,222.100 120.577,221.000 120.784 C 219.900 120.990,215.490 121.891,211.200 122.786 C 182.458 128.782,184.400 128.533,184.400 126.215 C 184.400 124.064,182.876 124.572,199.000 121.346 C 202.960 120.553,212.140 118.689,219.400 117.202 C 234.485 114.113,233.905 114.190,235.109 115.118 M76.596 118.100 C 76.427 118.572,75.863 121.638,74.593 129.000 C 74.289 130.760,73.598 134.720,73.056 137.800 C 71.884 144.471,71.614 144.056,77.034 143.914 L 81.400 143.800 81.874 141.400 C 82.135 140.080,82.802 136.390,83.356 133.200 C 83.910 130.010,84.641 125.870,84.980 124.000 C 85.319 122.130,85.710 119.925,85.849 119.100 L 86.102 117.600 81.439 117.600 C 78.070 117.600,76.725 117.739,76.596 118.100 M148.074 121.278 C 147.852 122.005,147.388 123.590,147.043 124.800 C 146.697 126.010,145.713 129.430,144.855 132.400 C 143.997 135.370,143.202 138.160,143.087 138.600 C 142.973 139.040,141.691 143.510,140.239 148.532 C 138.788 153.555,137.600 157.830,137.600 158.032 C 137.600 158.239,140.201 158.400,143.555 158.400 L 149.509 158.400 149.743 156.700 C 149.993 154.884,150.991 128.214,150.997 123.200 L 151.000 120.200 149.738 120.078 C 148.617 119.969,148.432 120.102,148.074 121.278 M36.755 126.000 C 36.335 128.310,35.880 131.010,35.743 132.000 C 35.396 134.512,34.600 135.428,27.070 141.976 C 19.336 148.700,19.796 147.981,21.003 151.462 C 22.028 154.416,23.820 162.475,24.459 167.000 C 24.676 168.540,25.325 172.140,25.901 175.000 C 27.114 181.021,27.111 180.676,25.981 187.200 C 24.701 194.590,25.153 197.162,28.265 200.184 C 29.976 201.846,30.020 201.758,27.200 202.306 C 25.990 202.541,24.749 202.793,24.442 202.867 C 23.820 203.015,23.406 201.771,22.623 197.400 C 22.347 195.860,21.116 189.560,19.886 183.400 C 18.657 177.240,17.357 170.490,16.998 168.400 C 15.851 161.735,14.852 157.401,13.610 153.693 C 11.260 146.678,12.236 144.423,20.739 137.235 C 24.963 133.664,27.516 131.123,34.499 123.537 C 37.434 120.349,37.725 120.667,36.755 126.000 M227.313 127.366 C 228.011 127.896,229.635 134.963,232.513 150.000 C 232.618 150.550,233.196 153.340,233.797 156.200 C 236.851 170.722,236.782 169.934,235.209 172.386 C 234.498 173.494,233.720 174.400,233.480 174.400 C 232.514 174.400,230.080 172.303,229.854 171.277 C 229.724 170.685,228.809 166.240,227.820 161.400 C 225.933 152.163,226.062 152.478,223.348 150.500 C 222.513 149.892,222.209 149.029,221.407 144.994 C 220.005 137.940,219.616 137.722,211.454 139.421 L 207.909 140.159 205.799 139.018 C 203.856 137.966,203.536 137.909,201.745 138.290 C 196.875 139.327,185.489 141.600,185.163 141.600 C 184.963 141.600,184.800 140.093,184.800 138.252 L 184.800 134.904 186.500 134.479 C 188.383 134.008,194.964 132.653,199.600 131.782 C 201.250 131.471,207.280 130.247,213.000 129.061 C 224.095 126.760,226.187 126.512,227.313 127.366 M289.400 131.071 C 288.080 131.382,285.740 131.895,284.200 132.211 C 279.373 133.201,279.013 133.297,278.455 133.740 C 277.647 134.381,271.868 143.201,272.102 143.436 C 272.310 143.643,277.115 142.885,282.400 141.811 C 286.164 141.046,286.400 141.049,286.400 141.874 C 286.400 142.245,286.656 143.640,286.968 144.974 C 287.280 146.308,287.838 149.020,288.209 151.000 C 289.512 157.973,289.425 157.942,293.004 152.726 C 297.262 146.521,297.053 147.384,295.801 141.167 C 295.207 138.215,294.550 134.819,294.342 133.619 C 293.742 130.164,293.585 130.083,289.400 131.071 M217.880 142.100 C 218.366 142.633,218.902 144.103,219.197 145.707 L 219.693 148.414 215.310 155.049 C 210.368 162.529,210.350 162.545,209.798 159.800 C 209.022 155.939,207.641 154.940,203.992 155.601 C 200.711 156.196,200.598 156.635,205.699 148.972 C 210.088 142.381,210.245 142.200,212.000 141.745 C 215.025 140.961,216.948 141.077,217.880 142.100 M199.600 147.024 C 199.600 147.147,196.405 152.052,192.500 157.924 L 185.400 168.600 185.284 165.105 L 185.169 161.610 188.171 157.005 C 191.372 152.096,191.374 151.845,188.200 152.988 C 185.161 154.083,184.741 153.899,184.879 151.537 L 185.000 149.474 189.600 148.509 C 197.322 146.890,199.600 146.551,199.600 147.024 M277.200 149.612 C 276.430 149.797,274.450 150.227,272.800 150.567 C 265.122 152.148,265.788 151.790,263.500 155.565 C 261.292 159.210,261.294 159.200,262.588 159.200 C 263.131 159.200,264.295 159.575,265.174 160.033 C 266.756 160.858,270.074 160.753,272.469 159.803 C 273.302 159.473,273.812 160.367,274.178 162.800 C 274.589 165.529,275.113 166.576,276.472 167.379 C 278.347 168.487,279.200 169.494,279.200 170.600 C 279.200 172.293,280.166 171.724,282.024 168.935 C 284.306 165.510,284.412 165.203,283.958 163.349 C 283.750 162.497,283.420 160.990,283.227 160.000 C 283.033 159.010,282.594 156.760,282.252 155.000 C 281.064 148.894,280.901 148.720,277.200 149.612 M206.327 158.731 C 207.011 159.257,207.411 160.230,207.859 162.455 L 208.465 165.466 204.569 171.335 C 200.330 177.718,200.530 177.559,195.924 178.216 C 193.319 178.588,192.349 177.586,191.644 173.800 L 191.124 171.000 195.011 165.102 C 199.154 158.816,199.162 158.810,203.000 158.284 C 205.186 157.985,205.393 158.013,206.327 158.731 M308.900 179.425 C 313.484 180.200,314.537 180.506,318.800 182.310 C 343.290 192.671,347.699 231.228,326.200 247.020 C 325.320 247.667,324.510 248.286,324.400 248.398 C 324.290 248.509,323.840 248.796,323.400 249.036 C 322.960 249.276,321.790 249.915,320.800 250.457 C 296.120 263.966,265.711 244.531,266.640 215.843 C 267.209 198.270,275.214 187.165,292.200 180.383 C 296.103 178.825,303.003 178.429,308.900 179.425 M301.954 183.661 C 301.889 184.424,301.994 185.656,302.210 186.659 C 302.374 187.420,297.787 188.809,295.135 188.801 C 294.989 188.800,294.749 188.080,294.600 187.200 C 294.213 184.909,291.829 185.091,287.767 187.721 C 286.152 188.767,286.082 189.307,287.364 190.831 L 288.329 191.977 285.466 194.767 L 282.603 197.558 281.265 196.139 L 279.927 194.720 278.747 195.851 C 277.442 197.101,275.200 200.423,275.200 201.106 C 275.200 201.346,275.920 201.860,276.800 202.248 C 278.673 203.074,278.701 203.300,277.393 207.000 C 276.849 208.540,276.403 209.862,276.402 209.938 C 276.401 210.013,275.512 209.953,274.426 209.804 L 272.451 209.532 271.826 211.639 C 271.482 212.797,271.200 214.713,271.200 215.895 L 271.200 218.045 273.473 217.923 L 275.747 217.800 276.445 221.200 C 276.828 223.070,277.155 224.717,277.171 224.860 C 277.187 225.003,276.300 225.336,275.200 225.600 C 272.740 226.190,272.694 226.557,274.575 230.629 C 276.194 234.132,276.814 234.519,278.392 233.008 C 279.799 231.659,279.771 231.648,282.540 234.653 C 285.204 237.546,285.197 237.510,283.400 239.145 C 281.565 240.815,281.525 240.714,285.058 243.353 C 288.546 245.958,289.108 246.014,289.863 243.830 C 290.594 241.719,290.368 241.764,293.881 243.017 C 297.849 244.432,297.783 244.356,297.019 246.605 C 296.664 247.651,296.455 248.588,296.555 248.688 C 296.990 249.123,300.013 249.582,302.503 249.590 L 305.207 249.600 304.957 247.474 L 304.707 245.348 306.854 244.881 C 308.034 244.625,309.742 244.302,310.648 244.165 L 312.296 243.914 312.571 245.748 C 312.910 248.005,313.147 248.162,315.292 247.548 C 319.495 246.344,321.483 244.157,319.889 242.493 C 318.806 241.363,318.471 240.400,319.161 240.400 C 319.359 240.400,320.394 239.503,321.461 238.406 C 323.749 236.054,323.709 236.062,325.461 237.600 C 327.171 239.101,327.371 239.095,328.851 237.500 C 332.241 233.845,332.572 231.982,330.013 230.959 C 328.161 230.218,328.128 230.109,329.177 228.242 C 329.604 227.481,330.151 226.125,330.393 225.227 L 330.832 223.596 333.089 223.698 L 335.346 223.800 335.688 222.200 C 335.877 221.320,335.979 219.430,335.915 218.000 L 335.800 215.400 333.718 215.454 L 331.635 215.507 331.392 213.654 C 331.259 212.634,330.995 210.996,330.805 210.013 C 330.374 207.780,330.491 207.600,332.381 207.600 C 334.323 207.600,334.512 207.091,333.566 204.407 C 331.995 199.944,330.813 198.975,328.777 200.480 L 327.587 201.360 326.908 200.380 C 326.534 199.841,325.460 198.575,324.522 197.567 L 322.816 195.734 324.008 194.592 C 325.478 193.184,325.489 192.817,324.100 191.531 C 320.609 188.297,317.974 187.553,317.260 189.600 C 317.030 190.260,316.756 190.800,316.651 190.800 C 316.546 190.800,315.112 190.260,313.464 189.600 C 311.815 188.940,310.288 188.400,310.069 188.400 C 309.850 188.400,309.700 187.567,309.735 186.549 C 309.798 184.769,309.746 184.679,308.380 184.198 C 305.999 183.359,302.008 183.025,301.954 183.661 M312.218 193.382 C 313.549 194.712,313.605 197.591,312.325 198.784 C 310.079 200.877,306.400 199.148,306.400 195.999 C 306.400 192.805,310.015 191.178,312.218 193.382 M298.135 196.300 C 298.267 197.125,298.835 199.960,299.397 202.600 C 299.959 205.240,300.586 208.300,300.791 209.400 C 302.251 217.255,302.577 218.012,304.182 217.281 C 305.285 216.779,306.000 217.510,306.000 219.141 C 306.000 219.578,306.258 220.985,306.572 222.268 C 308.072 228.381,307.766 229.044,304.332 227.114 L 302.755 226.228 301.742 227.522 C 297.037 233.535,287.803 231.301,284.700 223.400 C 284.116 221.914,283.971 221.808,282.666 221.914 L 281.261 222.027 280.989 219.851 C 280.150 213.137,283.492 208.716,289.853 208.122 L 292.473 207.877 292.256 206.639 C 291.592 202.864,291.562 202.800,290.394 202.800 C 289.392 202.800,289.236 202.609,288.848 200.900 C 287.893 196.700,287.903 196.669,290.600 196.092 C 297.994 194.509,297.847 194.505,298.135 196.300 M253.600 201.915 C 253.600 202.466,247.242 209.898,246.541 210.167 C 246.171 210.309,241.362 211.338,235.853 212.453 C 230.345 213.569,225.452 214.628,224.981 214.807 C 224.509 214.987,222.026 217.905,219.462 221.293 L 214.800 227.453 214.800 230.753 C 214.800 236.587,214.768 236.592,221.809 229.604 C 225.182 226.256,228.118 223.626,228.332 223.758 C 228.547 223.891,228.853 225.935,229.013 228.300 C 229.172 230.665,229.493 232.721,229.725 232.870 C 229.960 233.019,232.718 230.564,235.905 227.370 C 239.071 224.196,241.834 221.600,242.045 221.600 C 242.490 221.600,242.473 245.800,242.026 249.110 C 241.754 251.122,241.536 251.433,237.370 255.760 C 232.139 261.192,234.970 260.200,211.000 265.008 C 200.440 267.127,191.395 268.956,190.900 269.073 C 189.073 269.507,189.575 268.743,196.422 260.668 C 196.577 260.486,200.640 259.545,205.452 258.577 C 219.974 255.655,219.698 255.731,220.600 254.417 C 221.040 253.776,223.037 251.121,225.038 248.516 C 229.632 242.535,229.482 242.888,229.286 238.500 C 229.073 233.741,229.340 233.647,222.076 241.010 C 215.479 247.697,215.346 247.773,215.214 244.908 C 215.166 243.859,215.082 242.550,215.026 242.000 C 214.970 241.450,214.897 240.145,214.862 239.100 C 214.778 236.524,214.721 236.553,209.334 241.896 C 206.730 244.478,204.009 247.112,203.286 247.749 L 201.973 248.907 202.019 235.154 C 202.076 218.231,201.653 220.093,206.631 214.860 C 211.250 210.006,211.260 210.000,217.400 208.793 C 219.820 208.317,228.640 206.525,237.000 204.811 C 253.097 201.510,253.600 201.422,253.600 201.915 M315.770 206.900 C 317.126 213.841,317.272 214.182,318.940 214.324 C 320.163 214.428,320.400 214.598,320.400 215.373 C 320.400 215.882,320.770 217.716,321.222 219.449 C 323.386 227.744,323.653 230.419,322.573 233.004 C 320.402 238.198,311.359 240.500,310.665 236.036 C 310.542 235.246,310.316 234.175,310.162 233.655 C 309.894 232.747,309.944 232.720,311.460 232.976 C 313.458 233.314,314.976 232.239,315.643 230.016 C 316.120 228.422,316.158 228.676,314.193 220.200 C 313.887 218.880,313.532 217.292,313.404 216.671 C 313.196 215.665,313.045 215.570,312.008 215.798 C 310.763 216.072,310.781 216.104,309.827 211.877 C 309.584 210.803,309.498 210.766,307.829 211.017 L 306.084 211.278 305.815 209.539 C 305.668 208.583,305.451 207.223,305.332 206.518 C 305.140 205.368,305.235 205.206,306.259 204.949 C 307.690 204.589,314.054 203.286,314.624 203.237 C 314.857 203.217,315.373 204.865,315.770 206.900 M80.284 213.078 C 82.343 214.747,91.134 222.036,93.500 224.034 C 94.543 224.915,94.515 224.703,93.982 227.800 C 91.696 241.085,90.378 248.391,90.179 248.884 C 90.065 249.168,87.503 250.827,84.485 252.572 C 81.468 254.317,78.034 256.353,76.854 257.097 L 74.708 258.449 77.054 260.150 C 78.344 261.085,81.084 263.002,83.143 264.411 L 86.885 266.972 86.681 268.786 C 86.569 269.784,86.179 272.220,85.815 274.200 C 85.451 276.180,84.712 280.320,84.173 283.400 C 83.633 286.480,82.730 291.610,82.166 294.800 C 81.601 297.990,81.016 301.410,80.865 302.400 L 80.590 304.200 66.895 304.305 C 58.301 304.371,53.200 304.267,53.200 304.025 C 53.200 303.813,53.371 302.776,53.580 301.720 C 54.216 298.505,55.127 293.438,56.800 283.800 C 57.678 278.740,58.686 273.097,59.038 271.260 C 59.849 267.036,60.010 267.153,53.581 267.288 L 48.226 267.400 47.335 272.400 C 46.845 275.150,46.066 279.560,45.603 282.200 C 45.140 284.840,44.488 288.530,44.153 290.400 C 43.140 296.062,42.371 300.502,42.073 302.400 L 41.790 304.200 27.495 304.305 C 19.633 304.363,13.200 304.273,13.200 304.105 C 13.200 303.937,13.474 302.360,13.809 300.600 C 14.145 298.840,15.314 292.270,16.409 286.000 C 17.503 279.730,18.674 273.070,19.011 271.200 C 19.898 266.275,25.434 234.892,26.806 227.000 C 26.998 225.900,27.529 222.840,27.986 220.200 C 28.443 217.560,29.007 214.455,29.237 213.300 L 29.657 211.200 53.813 211.200 L 77.969 211.200 80.284 213.078 M159.846 212.084 C 163.498 214.880,175.599 224.909,175.593 225.133 C 175.589 225.280,175.310 226.930,174.974 228.800 C 174.638 230.670,173.912 234.810,173.361 238.000 C 172.810 241.190,172.222 244.340,172.054 245.000 L 171.749 246.200 158.000 246.305 C 150.438 246.363,144.094 246.254,143.903 246.063 C 143.707 245.867,144.100 242.607,144.808 238.558 C 145.496 234.621,146.160 230.810,146.284 230.090 L 146.508 228.779 140.172 228.890 L 133.835 229.000 133.545 230.400 C 133.385 231.170,132.782 234.500,132.204 237.800 C 131.625 241.100,130.883 245.330,130.554 247.200 C 130.226 249.070,129.610 252.580,129.187 255.000 C 128.763 257.420,127.951 262.010,127.382 265.200 C 126.812 268.390,126.098 272.440,125.795 274.200 C 124.579 281.260,123.979 284.653,123.761 285.710 L 123.532 286.821 129.857 286.710 L 136.182 286.600 136.639 284.400 C 137.435 280.561,138.073 276.647,138.138 275.200 L 138.200 273.800 135.100 273.683 C 132.609 273.589,132.000 273.444,132.000 272.943 C 132.000 272.361,133.405 264.159,134.474 258.500 L 134.947 256.000 152.473 256.000 C 168.504 256.000,170.000 256.056,170.000 256.661 C 170.000 257.025,168.846 263.820,167.436 271.761 C 166.026 279.702,164.753 287.010,164.607 288.000 C 164.461 288.990,164.258 290.098,164.156 290.463 C 164.053 290.827,161.451 292.717,158.374 294.663 C 155.296 296.608,150.577 299.592,147.889 301.294 L 143.000 304.387 127.385 304.394 L 111.771 304.400 105.985 299.897 C 94.185 290.712,94.329 290.842,94.565 289.664 C 94.682 289.079,95.337 285.360,96.020 281.400 C 96.703 277.440,97.699 271.770,98.235 268.800 C 99.688 260.739,100.226 257.688,102.398 245.200 C 103.489 238.930,104.558 232.900,104.774 231.800 C 104.990 230.700,105.287 228.900,105.434 227.800 C 105.823 224.897,105.878 224.838,111.478 221.277 C 114.295 219.486,118.940 216.503,121.800 214.647 L 127.000 211.273 142.846 211.237 C 158.605 211.200,158.698 211.205,159.846 212.084 M289.584 215.533 C 287.924 216.877,288.215 219.768,290.025 219.920 C 291.113 220.011,291.616 220.320,292.149 221.222 C 294.205 224.701,298.268 224.029,298.504 220.170 L 298.600 218.600 297.086 218.690 C 295.768 218.768,295.519 218.638,295.160 217.690 C 294.125 214.959,291.531 213.956,289.584 215.533 M55.034 229.145 C 54.917 229.334,54.556 231.089,54.232 233.045 C 53.761 235.880,51.849 246.942,51.481 248.957 C 51.293 249.985,62.753 249.740,62.984 248.711 C 63.097 248.210,63.636 245.190,64.182 242.000 C 64.727 238.810,65.450 234.760,65.787 233.000 C 66.124 231.240,66.400 229.575,66.400 229.300 C 66.400 228.712,55.394 228.562,55.034 229.145 M104.759 311.307 C 107.162 313.380,109.214 314.000,113.666 314.000 C 118.673 314.000,118.800 314.673,113.973 315.626 C 112.118 315.992,104.660 317.499,97.400 318.975 C 90.140 320.451,81.230 322.262,77.600 323.000 C 55.699 327.451,51.502 327.119,47.415 320.614 C 46.365 318.943,45.200 315.453,45.200 313.979 C 45.200 312.716,47.199 312.301,49.177 313.152 C 50.261 313.618,51.603 314.000,52.159 314.000 C 52.994 314.000,53.242 314.269,53.587 315.553 C 54.114 317.509,54.639 317.938,56.873 318.245 C 58.596 318.481,60.253 318.236,69.600 316.363 C 71.690 315.944,75.200 315.243,77.400 314.804 C 79.600 314.366,82.660 313.738,84.200 313.410 C 86.709 312.875,99.387 310.289,101.400 309.902 C 102.529 309.684,103.205 309.967,104.759 311.307 " stroke="none" fill="#fbfbfb" fill-rule="evenodd"></path></g></svg>