<?xml version="1.0" encoding="UTF-8" standalone="no"?>
<!-- Created with Inkscape (http://www.inkscape.org/) -->

<svg
   width="210mm"
   height="297mm"
   viewBox="0 0 210 297"
   version="1.1"
   id="svg5"
   inkscape:version="1.1.2 (b8e25be833, 2022-02-05)"
   sodipodi:docname="parg_with_border.svg"
   xmlns:inkscape="http://www.inkscape.org/namespaces/inkscape"
   xmlns:sodipodi="http://sodipodi.sourceforge.net/DTD/sodipodi-0.dtd"
   xmlns="http://www.w3.org/2000/svg"
   xmlns:svg="http://www.w3.org/2000/svg">
  <sodipodi:namedview
     id="namedview7"
     pagecolor="#ffffff"
     bordercolor="#666666"
     borderopacity="1.0"
     inkscape:pageshadow="2"
     inkscape:pageopacity="0.0"
     inkscape:pagecheckerboard="0"
     inkscape:document-units="mm"
     showgrid="false"
     inkscape:zoom="0.76633064"
     inkscape:cx="-35.885293"
     inkscape:cy="369.29229"
     inkscape:window-width="1920"
     inkscape:window-height="1017"
     inkscape:window-x="-8"
     inkscape:window-y="-8"
     inkscape:window-maximized="1"
     inkscape:current-layer="svgg" />
  <defs
     id="defs2" />
  <g
     inkscape:label="Layer 1"
     inkscape:groupmode="layer"
     id="layer1">
    <g
       id="svgg"
       transform="matrix(0.26458333,0,0,0.26458333,14.989471,62.881168)">
      <path
         id="path0"
         d="m 334.43799,24.292628 c -0.55,0.099 -2.476,0.542 -4.281,0.986 -1.804,0.443 -4.594,1.046 -6.2,1.339 -1.605,0.294 -5.619,1.081 -8.919,1.748 -3.3,0.668 -11.22,2.222 -17.6,3.454 -6.38,1.232 -12.23,2.403 -13,2.601 -0.77,0.199 -2.21,0.482 -3.2,0.629 -0.99,0.147 -2.43,0.42 -3.2,0.608 -1.412,0.343 -5.94,1.268 -10,2.042 -1.21,0.231 -3.37,0.658 -4.8,0.95 -1.43,0.292 -3.59,0.719 -4.8,0.95 -1.21,0.231 -3.55,0.698 -5.2,1.039 -3.569,0.736 -10.989,2.235 -12.4,2.505 -1.684,0.321 -18.395,3.658 -29.765,5.943 -5.921,1.19 -10.826,2.163 -10.9,2.163 -0.074,0 -0.135,1.733 -0.135,3.851 v 3.851 l 1.9,-0.217 c 1.045,-0.119 7.66,-1.406 14.7,-2.859 18.875,-3.896 21.995,-4.537 26.4,-5.425 2.2,-0.444 4.72,-0.975 5.6,-1.18 0.88,-0.206 2.95,-0.656 4.6,-1.001 8.098,-1.693 11.15,-2.323 12.8,-2.644 2.238,-0.434 7.208,-1.456 9.6,-1.973 0.99,-0.215 2.97,-0.593 4.4,-0.842 1.43,-0.248 2.96,-0.599 3.4,-0.779 0.44,-0.18 1.34,-0.414 2,-0.521 2.258,-0.363 14.004,-2.781 18.8,-3.869 1.98,-0.45 4.5,-0.973 5.6,-1.162 2.319,-0.4 9.663,-1.884 12,-2.425 0.88,-0.204 3.13,-0.657 5,-1.006 1.87,-0.35 3.981,-0.904 4.69,-1.232 2.776,-1.281 6.127,-1.201 7.865,0.189 0.855,0.684 1.787,1.244 2.07,1.244 0.283,0 1.204,1.035 2.045,2.3 2.234,3.359 6.795,5.067 9.335,3.497 0.184,-0.114 1.022,0.187 1.864,0.667 2.832,1.616 2.899,1.733 2.679,4.674 -0.189,2.535 -0.14,2.726 1.027,4.016 1.382,1.528 1.473,1.965 0.638,3.07 -1.781,2.354 -0.474,5.815 2.687,7.117 0.825,0.34 1.5,0.799 1.5,1.02 0,2.328 7.599,6.582 13.4,7.502 6.248,0.991 6.413,1.198 3.591,4.504 -2.49,2.917 -2.562,3.105 -2.63,6.872 -0.034,1.833 -0.21,3.608 -0.392,3.946 -0.495,0.921 -1.363,3.067 -2.596,6.415 -0.607,1.65 -1.255,3.06 -1.439,3.133 -0.184,0.074 -0.334,0.345 -0.334,0.603 0,0.41 -4.023,5.324 -4.8,5.864 -2.7,1.875002 -2.345,8.349002 0.626,11.406002 1.94,1.995 2.156,2.833 1.04,4.031 -3.925,4.214 -4.485,6.876 -3.122,14.858 1.089,6.373 4.441,10.905 8.067,10.905 0.87,0 1.403,1.053 1.85,3.656 1.139,6.63 3.324,8.449 9.078,7.553 4.314,-0.671 6.21,0.617 10.292,6.991 0.423,0.66 1.091,1.47 1.484,1.8 0.663,0.555 1.121,1.24 2.309,3.448 0.414,0.768 0.053,1.241 -3.888,5.091 -2.39,2.335 -4.673,4.854 -5.074,5.598 -0.401,0.744 -1.389,1.737 -2.195,2.207 -3.241,1.886 -5.638,5.366 -5.661,8.218 -0.013,1.66 -3.075,4.84 -5.016,5.21 -0.666,0.127 -1.885,0.786 -2.709,1.466 -2.626,2.164 -6.014,3.644 -7.26,3.17 -1.433,-0.545 -4.749,-0.52 -5.309,0.04 -0.419,0.419 -1.594,0.741 -5.512,1.51 -4.589,0.901 -9.768,5.588 -10.824,9.796 -0.431,1.715 -1.649,2.646 -3.463,2.646 -0.911,0 -2.209,0.166 -2.885,0.369 -0.675,0.204 -2.578,0.585 -4.228,0.848 -1.65,0.263 -3.72,0.619 -4.6,0.791 -2.719,0.534 -8.318,1.653 -10,1.999 -1.611,0.332 -3.911,0.785 -12,2.364 -2.42,0.473 -5.051,1.032 -5.846,1.244 -0.796,0.212 -1.966,0.384 -2.6,0.384 -1.357,-0.002 -13.188,2.323 -14.354,2.821 -0.882,0.376 -5.811,1.437 -19.4,4.177 -4.95,0.998 -14.76,2.978 -21.8,4.401 -7.04,1.423 -17.3,3.495 -22.8,4.605 -11.872,2.397 -11.133,2.189 -12.726,3.577 -0.701,0.611 -1.814,1.2 -2.474,1.311 -0.66,0.111 -5.005,0.964 -9.655,1.897 l -8.454,1.695 -1.146,1.542 c -0.63,0.847 -2.585,2.465 -4.345,3.595 -1.76,1.13 -4.37,2.8 -5.8,3.712 -4.119,2.625 -3.848,2.606 13.2,-0.925 5.39,-1.117 11.964,-2.464 14.61,-2.994 5.893,-1.181 6.786,-1.51 8.194,-3.018 1.042,-1.115 1.737,-1.315 11.253,-3.238 5.579,-1.128 10.863,-2.199 11.743,-2.382 0.88,-0.182 6.01,-1.248 11.4,-2.368 10.72,-2.227 22.712,-4.689 30.2,-6.2 2.64,-0.533 8.31,-1.706 12.6,-2.606 7.732,-1.624 25.027,-5.155 30.8,-6.288 1.65,-0.324 3.72,-0.736 4.6,-0.916 0.88,-0.181 3.76,-0.702 6.4,-1.158 2.64,-0.457 5.61,-1.005 6.6,-1.218 0.99,-0.213 3.51,-0.703 5.6,-1.088 2.09,-0.385 4.042,-0.888 4.338,-1.117 1.559,-1.207 2.391,-2.39 3.056,-4.345 1.557,-4.58 3.948,-6.837 7.726,-7.294 1.254,-0.152 2.534,-0.479 2.844,-0.726 0.346,-0.277 2.041,-0.422 4.4,-0.375 3.066,0.062 4.117,-0.072 5.236,-0.663 0.77,-0.407 2.445,-1.236 3.723,-1.841 1.277,-0.606 2.537,-1.403 2.8,-1.77 0.262,-0.368 1.358,-1.003 2.434,-1.412 2.277,-0.864 6.932,-5.312 7.28,-6.956 0.12,-0.569 0.386,-1.447 0.591,-1.953 0.204,-0.505 0.372,-1.256 0.372,-1.669 0,-0.932 1.871,-3.212 2.636,-3.212 0.31,0 0.564,-0.15 0.564,-0.332 0,-0.183 0.427,-0.561 0.949,-0.841 0.522,-0.279 1.345,-1.212 1.829,-2.073 1.027,-1.828 6.562,-7.296 8.858,-8.75 3.571,-2.263 4.332,-6.901 1.614,-9.833 -0.598,-0.644 -1.643,-1.981 -2.322,-2.971 -0.679,-0.99 -1.616,-2.143 -2.081,-2.562 -0.466,-0.419 -0.847,-0.919 -0.847,-1.111 0,-0.191 -0.528,-0.929 -1.173,-1.638 -0.645,-0.709 -1.596,-1.919 -2.113,-2.689 -2.326,-3.461 -7.22,-5.523 -11.311,-4.767 -2.842,0.526 -2.878,0.49 -3.584,-3.527 -0.862,-4.9 -2.507,-6.861 -6.28,-7.486 -2.353,-0.389 -2.594,-1.014 -3.816,-9.902 -0.179,-1.307 0.086,-1.916 2.247,-5.169 3.875,-5.834 3.917,-7.934 0.225,-11.37 -2.739,-2.549 -2.73,-3.019 0.113,-5.979 2.101,-2.187002 4.492,-5.730002 4.492,-6.655002 0,-0.322 0.151,-0.756 0.336,-0.965 0.185,-0.209 0.54,-0.92 0.789,-1.58 0.25,-0.66 0.665,-1.74 0.923,-2.4 1.838,-4.704 2.349,-6.614 2.354,-8.8 0.006,-2.406 0.577,-3.543 3.316,-6.6 3.676,-4.103 3.32,-7.747 -1.052,-10.755 -1.647,-1.132 -2.41,-1.348 -8.066,-2.279 -5.32,-0.875 -6.671,-1.656 -11.046,-6.38 -0.576,-0.622 -0.754,-1.423 -0.756,-3.4 -0.002,-2.046 -0.208,-2.92 -0.988,-4.186 -0.746,-1.212 -0.988,-2.168 -0.998,-3.94 -0.017,-3.276 -2.921,-7.86 -4.98,-7.86 -0.157,0 -0.858,-0.425 -1.559,-0.945 -1.84,-1.365 -3.372,-1.766 -5.937,-1.551 -1.997,0.167 -2.351,0.082 -3,-0.72 -2.074,-2.563 -3.388,-3.875 -4.408,-4.401 -0.62,-0.321 -1.875,-1.079 -2.789,-1.685 -1.672,-1.109 -4.993,-1.677 -7.339,-1.255 m -25.4,22.8 c -7.92,1.616 -15.39,3.12 -16.6,3.342 -1.21,0.222 -3.55,0.685 -5.2,1.029 -3.006,0.627 -3.854,0.792 -9.8,1.916 -6.6,1.248 -8.723,3.385 -8.02,8.074 0.309,2.062 2,3.784 6.62,6.741 1.65,1.056 4.67,2.983 6.711,4.282 4.83,3.075 4.853,2.462 -0.382,10.186 -2.491,3.676 -6.377,9.407 -8.635,12.735 -4.802,7.079002 -5.046,7.725002 -4.287,11.355002 0.898,4.293 3.746,6.822 7.106,6.313 1.734,-0.263 1.881,-0.196 7.163,3.253 3.462,2.261 3.944,2.721 4.321,4.12 0.877,3.256 3.475,5.116 6.51,4.658 0.931,-0.14 2.413,-0.364 3.293,-0.496 2.931,-0.441 3.543,-1.149 11.879,-13.715 1.253,-1.89 2.428,-3.616 2.61,-3.836 0.182,-0.22 1.119,-1.66 2.082,-3.2 0.963,-1.54 1.903,-2.86 2.09,-2.933 0.186,-0.074 0.339,-0.298 0.339,-0.499 0,-0.541002 2.818,-4.368002 3.216,-4.368002 0.295,0 1.938,0.839 4.99,2.549 0.443,0.248 1.343,0.827 2,1.286 0.657,0.459002 1.482,0.938002 1.835,1.065002 0.353,0.126 1.907,1.041 3.455,2.033 1.547,0.992 3.329,1.845 3.959,1.896 5.414,0.434 8.327,-2.548 7.353,-7.528002 -0.205,-1.046 -1.555,-7.661 -3.001,-14.701 -1.446,-7.04 -2.982,-14.6 -3.414,-16.8 -0.431,-2.2 -0.96,-4.72 -1.176,-5.6 -0.215,-0.88 -0.745,-3.491 -1.177,-5.802 -1.18,-6.31 -1.474,-6.834 -5.055,-8.99 -3.165,-1.906 -3.603,-1.872 -20.785,1.635 m -242.161002,0.257 c -0.23,1.155 -0.886,4.8 -1.458,8.1 -0.572,3.3 -1.206,6.945 -1.41,8.1 -0.204,1.155 -0.538,3.045 -0.742,4.2 -0.204,1.155 -0.828,4.71 -1.386,7.9 -1.149,6.557 -1.785,10.155 -3.463,19.6 -3.014,16.966002 -4.18,23.582002 -5.354,30.400002 -0.549,3.19 -1.275,7.24 -1.612,9 -0.338,1.76 -0.614,3.335 -0.614,3.5 0,0.165 6.387,0.3 14.192,0.3 h 14.193 l 0.184,-0.9 c 0.766,-3.732 1.117,-5.644 2.036,-11.1 0.574,-3.41 1.29,-7.55 1.591,-9.2 0.3,-1.65 0.758,-4.26 1.017,-5.8 0.851,-5.071 -0.177,-4.6 10.037,-4.6 h 8.867002 l 10.528,-6.625 c 10.22,-6.431002 10.535,-6.667002 10.777,-8.100002 0.137,-0.811 0.671,-3.815 1.187,-6.675 0.517,-2.86 1.68,-9.52 2.586,-14.8 0.906,-5.28 1.738,-10.076 1.849,-10.657 0.224,-1.18 1.02,-0.426 -10.017,-9.502 l -6.373,-5.241 h -23.099002 -23.098 l -0.418,2.1 m 82.216002,-1.788 c -0.168,0.272 -13.295,36.143 -17.451,47.688 -0.831,2.31 -2.631,7.260002 -3.998,11.000002 -1.368,3.74 -3.172,8.69 -4.011,11 -0.838,2.31 -2.277,6.27 -3.197,8.8 -0.92,2.53 -1.824,5.05 -2.008,5.6 -0.37,1.1 -2.545,6.985 -2.996,8.105 -0.268,0.667 0.475,0.7 13.628,0.6 l 13.912,-0.105 0.905,-2.8 c 0.497,-1.54 1.711,-5.32 2.696,-8.4 l 1.792,-5.6 h 8.136 c 5.195,0 8.117,0.145 8.082,0.4 -0.031,0.22 -0.185,4.047 -0.342,8.505 l -0.286,8.106 13.742,-0.106 13.741,-0.105 -0.088,-11.4 c -0.093,-11.987 -0.726,-49.520002 -1.175,-69.700002 l -0.266,-11.9 h -20.312 c -11.171,0 -20.398,0.14 -20.504,0.312 m 180.878,1.538 c 2.421,1.74 2.288,1.419 3.868,9.35 0.329,1.65 0.779,3.81 1,4.8 0.221,0.99 0.581,2.88 0.799,4.2 0.218,1.32 0.569,3.03 0.781,3.8 0.374,1.356 1.067,4.779 3.607,17.8 0.171,0.88 0.787,3.924 1.368,6.764 1.46,7.138002 0.918,8.973002 -2.861,9.682002 -1.806,0.339 -1.78,0.352 -13.642,-7.011002 -5.639,-3.5 -4.93,-3.987 -14.379,9.873002 -11.95,17.53 -11.087,16.613 -15.688,16.663 -3.283,0.035 -4.102,-0.551 -4.851,-3.472 -0.466,-1.819 -0.745,-2.168 -2.727,-3.409 -1.214,-0.76 -3.568,-2.261 -5.231,-3.336 -2.642,-1.708 -3.289,-1.954 -5.126,-1.954 -5.378,0 -7.496,-5.967 -3.834,-10.8 0.751,-0.990002 1.857,-2.610002 2.46,-3.600002 0.602,-0.99 3.936,-6.103 7.409,-11.362 3.473,-5.26 6.311,-9.67 6.308,-9.8 -0.018,-0.693 -1.255,-1.625 -8.01,-6.037 -8.129,-5.308 -9.984,-6.939 -9.984,-8.776 0,-3.316 1.63,-4.382 8.8,-5.759 0.55,-0.105 2.44,-0.499 4.2,-0.874 1.76,-0.376 3.92,-0.824 4.8,-0.996 2.759,-0.539 11.398,-2.35 16.4,-3.439 2.64,-0.574 6.06,-1.272 7.6,-1.551 1.54,-0.28 4.42,-0.878 6.4,-1.33 6.226,-1.421 7.883,-1.331 10.533,0.574 m -17.533,5.057 c -7.37,1.498 -14.75,2.967 -16.4,3.267 -5.372,0.974 -17.758,3.447 -19.5,3.894 -2.783,0.714 -2.832,0.661 5.7,6.192 1.98,1.284 3.78,2.425 4,2.537 3.926,1.993 6.532,4.453 6.803,6.424 l 0.282,2.049 -5.935,8.865 c -3.264,4.876 -6.073,8.925 -6.243,8.998 -0.169,0.074 -0.307,0.279 -0.307,0.458 0,0.178 -1.35,2.33 -3,4.783 -4.061,6.036002 -4.082,7.666002 -0.097,7.574002 1.998,-0.046 2.488,0.114 4.278,1.4 1.111,0.799 2.085,1.452 2.164,1.452 1.407,0 8.65,5.79 8.866,7.087 0.389,2.34 0.496,2.513 1.55,2.513 2.278,0 2.882,-0.674 9.568,-10.668 3.655,-5.463 7.766,-11.579002 9.137,-13.591002 l 2.493,-3.659 2.989,-0.704 2.989,-0.704 2.031,1.121 c 1.118,0.617 3.811,2.192 5.985,3.5 7.548,4.544 9.094,5.203002 8.451,3.605 -0.155,-0.385 -1.181,-5.11 -2.282,-10.5 -1.1,-5.39 -2.684,-13.13 -3.52,-17.2 -0.836,-4.07 -1.9,-9.29 -2.364,-11.6 -2.278,-11.343 -0.412,-10.593 -17.638,-7.093 m 10.643,2.999 c 0.571,0.379 0.991,2.256 5.139,22.957 3.418,17.056 3.665,16.024 -2.952,12.336 -4.893,-2.727 -4.866,-2.701 -5.265,-4.984 -0.155,-0.888 -0.755,-3.865 -1.333,-6.615 -0.578,-2.75 -1.309,-6.489 -1.624,-8.31 -0.805,-4.654 -0.589,-4.54 -6.208,-3.275 -3.259,0.734 -9.741,2.01 -13.199,2.6 l -3.399,0.579 -2.844,-1.755 c -7.711,-4.759 -8.262,-5.406 -5.258,-6.164 2.493,-0.63 12.481,-2.759 17.3,-3.688 1.1,-0.211 2.81,-0.569 3.8,-0.793 0.99,-0.225 3.15,-0.675 4.8,-1.001 1.65,-0.325 4.44,-0.936 6.2,-1.356 3.664,-0.875 4.23,-0.937 4.843,-0.531 m -87.643,7.296 c -7.26,1.487 -16.44,3.351 -20.4,4.144 -16.124,3.226 -14.6,2.718 -14.6,4.869 0,2.318 -1.942,2.567 26.8,-3.429 4.29,-0.895 8.7,-1.796 9.8,-2.002 1.1,-0.207 3.699,-0.731 5.775,-1.166 l 3.774,-0.791 1.326,0.819 c 0.729,0.451 1.325,0.862 1.325,0.915 0,0.052 0.37,1.793 0.823,3.867 0.453,2.075 0.971,4.582 1.151,5.572 0.291,1.601 1.793,9.011 7.184,35.457002 0.859,4.212 1.671,8.003 1.805,8.426 0.169,0.534 -0.518,1.917 -2.26,4.543 l -2.503,3.774 -4,0.858 c -2.527,0.542 -4.242,0.73 -4.658,0.509 -1.29,-0.686 -6.679,-4.341 -6.88,-4.666 -0.175,-0.284 -3.087,-14.006 -3.841,-18.101 -0.253,-1.372 -0.423,-1.152 -8.65,11.2 l -8.393,12.6 -2.589,0.456 c -1.424,0.252 -4.587,0.868 -7.029,1.371 l -4.439,0.914 -1.237,-0.881 c -0.68,-0.484 -1.349,-1.236 -1.487,-1.67 -0.52,-1.639 -0.997,-0.691 -0.997,1.981 0,3.815 1.214,5.03 4.409,4.415 6.008,-1.157 15.77,-3.249 16.094,-3.45 0.21,-0.13 2.99,-4.193 6.176,-9.029 3.187,-4.837 5.94,-8.639 6.118,-8.45 0.179,0.188 0.797,2.753 1.374,5.698 0.577,2.945 1.15,5.517 1.273,5.716 0.467,0.756 9.296,6.329 10.027,6.329 0.731,0 9.67,-1.807 10.929,-2.209 0.33,-0.106 1.977,-2.307 3.659,-4.891 l 3.06,-4.7 -0.543,-2.8 c -0.299,-1.54 -1.46,-7.21 -2.581,-12.6 -1.121,-5.39 -2.278,-11.060002 -2.572,-12.600002 -0.294,-1.54 -1.003,-5.05 -1.577,-7.8 -0.574,-2.75 -1.94,-9.406 -3.035,-14.791 -1.709,-8.398 -2.122,-9.891 -2.902,-10.491 -1.204,-0.928 -0.624,-1.005 -15.709,2.084 m -133.551,1.898 c -0.139,0.825 -0.53,3.03 -0.869,4.9 -0.339,1.87 -1.070002,6.01 -1.624002,9.2 -0.554,3.19 -1.221,6.88 -1.482,8.2 l -0.474,2.4 -4.366,0.114 c -5.42,0.142 -5.15,0.557 -3.978,-6.114 0.542,-3.08 1.233,-7.04 1.537,-8.8 1.27,-7.362 1.834,-10.428 2.003,-10.9 0.129,-0.361 1.474,-0.5 4.843,-0.5 h 4.663002 l -0.253,1.5 m 65.148,4.1 c -0.006,5.014 -1.004,31.684002 -1.254,33.500002 l -0.234,1.7 h -5.954 c -3.354,0 -5.955,-0.161 -5.955,-0.368 0,-0.202 1.188,-4.477002 2.639,-9.500002 1.452,-5.022 2.734,-9.492 2.848,-9.932 0.115,-0.44 0.91,-3.23 1.768,-6.2 0.858,-2.97 1.842,-6.39 2.188,-7.6 1.458,-5.107 1.315,-4.856 2.695,-4.722 l 1.262,0.122 -0.003,3 m -116.498002,0.337 c -6.983,7.586 -9.536,10.127 -13.76,13.698 -8.503,7.188 -9.479,9.443 -7.129,16.458 1.242,3.708002 2.241,8.042002 3.388,14.707002 0.359,2.09 1.659,8.84 2.888,15 1.23,6.16 2.461,12.46 2.737,14 0.783,4.371 1.197,5.615 1.819,5.467 0.307,-0.074 1.548,-0.326 2.758,-0.561 2.82,-0.548 2.776,-0.46 1.065,-2.122 -3.112,-3.022 -3.564,-5.594 -2.284,-12.984 1.13,-6.524 1.133,-6.179 -0.08,-12.2 -0.576,-2.86 -1.225,-6.46 -1.442,-8 -0.639,-4.525 -2.431,-12.584002 -3.456,-15.538002 -1.207,-3.481 -1.667,-2.762 6.067,-9.486 7.53,-6.548 8.326,-7.464 8.673,-9.976 0.137,-0.99 0.592,-3.69 1.012,-6 0.97,-5.333 0.679,-5.651 -2.256,-2.463 m 178.501002,5.524 c -5.72,1.186 -11.75,2.41 -13.4,2.721 -4.636,0.871 -11.217,2.226 -13.1,2.697 l -1.7,0.425 v 3.348 c 0,1.841 0.163,3.348 0.363,3.348 0.326,0 11.712,-2.273 16.582,-3.31 1.791,-0.381 2.111,-0.324 4.054,0.728 l 2.11,1.141 3.545,-0.738 c 8.162,-1.699 8.551,-1.481 9.953,5.573 0.802,4.035 1.106,4.898 1.941,5.506 2.714,1.978 2.585,1.663 4.472,10.900002 0.989,4.84 1.904,9.285 2.034,9.877 0.226,1.026 2.66,3.123 3.626,3.123 0.24,0 1.018,-0.906 1.729,-2.014 1.573,-2.452 1.642,-1.664 -1.412,-16.186 -0.601,-2.860002 -1.179,-5.650002 -1.284,-6.200002 -2.878,-15.037 -4.502,-22.104 -5.2,-22.634 -1.126,-0.854 -3.218,-0.606 -14.313,1.695 m 80.533,1.858 c 0.237,0.285 0.601,1.5 0.809,2.7 0.208,1.2 0.865,4.596 1.459,7.548 1.252,6.217 1.461,5.354 -2.797,11.559 -3.579,5.216002 -3.492,5.247002 -4.795,-1.726 -0.371,-1.98 -0.929,-4.692 -1.241,-6.026 -0.312,-1.334 -0.568,-2.729 -0.568,-3.1 0,-0.825 -0.236,-0.828 -4,-0.063 -5.285,1.074 -10.09,1.832 -10.298,1.625 -0.234,-0.235 5.545,-9.055 6.353,-9.696 0.558,-0.443 0.918,-0.539 5.745,-1.529 1.54,-0.316 3.88,-0.829 5.2,-1.14 3.172,-0.749 3.623,-0.766 4.133,-0.152 m -81.533,10.826 c -1.755,0.455 -1.912,0.636 -6.301,7.227 -5.101,7.663002 -4.988,7.224002 -1.707,6.629002 3.649,-0.661 5.03,0.338 5.806,4.199 0.552,2.745 0.57,2.729 5.512,-4.751 l 4.383,-6.635002 -0.496,-2.707 c -0.811,-4.418 -2.292,-5.234 -7.197,-3.962 m -16,5.474 c -0.99,0.179 -3.87,0.76 -6.4,1.29 l -4.6,0.965 -0.121,2.063 c -0.138,2.362 0.282,2.546 3.321,1.451 3.174,-1.143 3.172,-0.892 -0.029,4.017002 l -3.002,4.605 0.115,3.495 0.116,3.495 7.1,-10.676 c 3.905,-5.872002 7.1,-10.777002 7.1,-10.900002 0,-0.288 -1.326,-0.216 -3.6,0.195 m 85.288,3.381 c 0.188,0.66 0.621,2.64 0.964,4.400002 0.342,1.76 0.781,4.01 0.975,5 0.193,0.99 0.523,2.497 0.731,3.349 0.454,1.854 0.348,2.161 -1.934,5.586 -1.858,2.789 -2.824,3.358 -2.824,1.665 0,-1.106 -0.853,-2.113 -2.728,-3.221 -1.359,-0.803 -1.883,-1.85 -2.294,-4.579 -0.366,-2.433 -0.876,-3.327 -1.709,-2.997 -2.395,0.95 -5.713,1.055 -7.295,0.23 -0.879,-0.458 -2.043,-0.833 -2.586,-0.833 -1.294,0 -1.296,0.01 0.912,-3.635 2.288,-3.775002 1.622,-3.417002 9.3,-4.998002 1.65,-0.34 3.63,-0.77 4.4,-0.955 2.581,-0.622 3.708,-0.35 4.088,0.988 m -78.288,7.684002 c -3.838,0.526 -3.846,0.532 -7.989,6.818 l -3.887,5.898 0.52,2.8 c 0.705,3.786 1.675,4.788 4.28,4.416 4.606,-0.657 4.406,-0.498 8.645,-6.881 l 3.896,-5.869 -0.606,-3.011 c -0.448,-2.225 -0.848,-3.198 -1.532,-3.724 -0.934,-0.718 -1.141,-0.746 -3.327,-0.447 m 92.4,21.202 c -2.867,0.69 -2.966,0.728 -7.8,3.01 -35.677,16.844 -23.189,72.304 16.281,72.304 5.436,0 12.119,-1.715 16.919,-4.343 0.99,-0.542 2.16,-1.181 2.6,-1.421 0.44,-0.24 0.89,-0.527 1,-0.638 0.11,-0.112 0.92,-0.731 1.8,-1.378 23.54,-17.291 16.105,-57.839 -12.2,-66.54 -5.215,-1.603 -14.097,-2.078 -18.6,-0.994 m 12.98,4.712 c 1.366,0.481 1.418,0.571 1.355,2.351 -0.035,1.018 0.115,1.851 0.334,1.851 0.219,0 1.746,0.54 3.395,1.2 1.648,0.66 3.082,1.2 3.187,1.2 0.105,0 0.379,-0.54 0.609,-1.2 0.714,-2.047 3.349,-1.303 6.84,1.931 1.389,1.286 1.378,1.653 -0.092,3.061 l -1.192,1.142 1.706,1.833 c 0.938,1.008 2.012,2.274 2.386,2.813 l 0.679,0.98 1.19,-0.88 c 2.036,-1.505 3.218,-0.536 4.789,3.927 0.946,2.684 0.757,3.193 -1.185,3.193 -1.89,0 -2.007,0.18 -1.576,2.413 0.19,0.983 0.454,2.621 0.587,3.641 l 0.243,1.853 2.083,-0.053 2.082,-0.054 0.115,2.6 c 0.064,1.43 -0.038,3.32 -0.227,4.2 l -0.342,1.6 -2.257,-0.102 -2.257,-0.102 -0.439,1.631 c -0.242,0.898 -0.789,2.254 -1.216,3.015 -1.049,1.867 -1.016,1.976 0.836,2.717 2.559,1.023 2.228,2.886 -1.162,6.541 -1.48,1.595 -1.68,1.601 -3.39,0.1 -1.752,-1.538 -1.712,-1.546 -4,0.806 -1.067,1.097 -2.102,1.994 -2.3,1.994 -0.69,0 -0.355,0.963 0.728,2.093 1.594,1.664 -0.394,3.851 -4.597,5.055 -2.145,0.614 -2.382,0.457 -2.721,-1.8 l -0.275,-1.834 -1.648,0.251 c -0.906,0.137 -2.614,0.46 -3.794,0.716 l -2.147,0.467 0.25,2.126 0.25,2.126 -2.704,-0.01 c -2.49,-0.008 -5.513,-0.467 -5.948,-0.902 -0.1,-0.1 0.109,-1.037 0.464,-2.083 0.764,-2.249 0.83,-2.173 -3.138,-3.588 -3.513,-1.253 -3.287,-1.298 -4.018,0.813 -0.755,2.184 -1.317,2.128 -4.805,-0.477 -3.533,-2.639 -3.493,-2.538 -1.658,-4.208 1.797,-1.635 1.804,-1.599 -0.86,-4.492 -2.769,-3.005 -2.741,-2.994 -4.148,-1.645 -1.578,1.511 -2.198,1.124 -3.817,-2.379 -1.881,-4.072 -1.835,-4.439 0.625,-5.029 1.1,-0.264 1.987,-0.597 1.971,-0.74 -0.016,-0.143 -0.343,-1.79 -0.726,-3.66 l -0.698,-3.4 -2.274,0.123 -2.273,0.122 v -2.15 c 0,-1.182 0.282,-3.098 0.626,-4.256 l 0.625,-2.107 1.975,0.272 c 1.086,0.149 1.975,0.209 1.976,0.134 10e-4,-0.076 0.447,-1.398 0.991,-2.938 1.308,-3.7 1.28,-3.926 -0.593,-4.752 -0.88,-0.388 -1.6,-0.902 -1.6,-1.142 0,-0.683 2.242,-4.005 3.547,-5.255 l 1.18,-1.131 1.338,1.419 1.338,1.419 2.863,-2.791 2.863,-2.79 -0.965,-1.146 c -1.282,-1.524 -1.212,-2.064 0.403,-3.11 4.062,-2.63 6.446,-2.812 6.833,-0.521 0.149,0.88 0.389,1.6 0.535,1.601 2.652,0.008 7.239,-1.381 7.075,-2.142 -0.216,-1.003 -0.321,-2.235 -0.256,-2.998 0.054,-0.636 4.045,-0.302 6.426,0.537 m -0.922,9.183 c -2.387,2.213 -0.81,6.219 2.448,6.219 2.212,0 3.294,-1.128 3.294,-3.434 0,-3.407 -3.329,-5.021 -5.742,-2.785 m -12.658,1.855 c -6.527,1.241 -6.609,1.273 -6.492,2.567 0.318,3.535 0.929,4.997 2.086,4.997 1.168,0 1.198,0.064 1.862,3.839 l 0.217,1.238 -2.62,0.245 c -6.361,0.594 -9.703,5.015 -8.864,11.729 l 0.272,2.176 1.405,-0.113 c 1.305,-0.106 1.45,0 2.034,1.486 3.103,7.901 12.337,10.135 17.042,4.122 l 1.013,-1.294 1.577,0.886 c 3.434,1.93 3.74,1.267 2.24,-4.846 -0.314,-1.283 -0.572,-2.69 -0.572,-3.127 0,-1.631 -0.715,-2.362 -1.818,-1.86 -1.605,0.731 -1.931,-0.026 -3.391,-7.881 -0.205,-1.1 -0.832,-4.16 -1.394,-6.8 -0.562,-2.64 -1.13,-5.475 -1.262,-6.3 -0.261,-1.63 -0.297,-1.641 -3.335,-1.064 m -57.8,9.575 c -8.36,1.714 -17.18,3.506 -19.6,3.982 -6.14,1.207 -6.15,1.213 -10.769,6.067 -4.978,5.233 -4.555,3.371 -4.612,20.294 l -0.046,13.753 1.313,-1.158 c 0.723,-0.637 3.444,-3.271 6.048,-5.853 5.387,-5.343 5.444,-5.372 5.528,-2.796 0.035,1.045 0.108,2.35 0.164,2.9 0.056,0.55 0.14,1.859 0.188,2.908 0.132,2.865 0.265,2.789 6.862,-3.898 7.264,-7.363 6.997,-7.269 7.21,-2.51 0.196,4.388 0.346,4.035 -4.248,10.016 -2.001,2.605 -3.998,5.26 -4.438,5.901 -0.902,1.314 -0.626,1.238 -15.148,4.16 -4.812,0.968 -8.875,1.909 -9.03,2.091 -6.847,8.075 -7.349,8.839 -5.522,8.405 0.495,-0.117 9.54,-1.946 20.1,-4.065 23.97,-4.808 21.139,-3.816 26.37,-9.248 4.166,-4.327 4.384,-4.638 4.656,-6.65 0.447,-3.31 0.464,-27.51 0.019,-27.51 -0.211,0 -2.974,2.596 -6.14,5.77 -3.187,3.194 -5.945,5.649 -6.18,5.5 -0.232,-0.149 -0.553,-2.205 -0.712,-4.57 -0.16,-2.365 -0.466,-4.409 -0.681,-4.542 -0.214,-0.132 -3.15,2.498 -6.523,5.846 -7.041,6.988 -7.009,6.983 -7.009,1.149 v -3.3 l 4.662,-6.16 c 2.564,-3.388 5.047,-6.306 5.519,-6.486 0.471,-0.179 5.364,-1.238 10.872,-2.354 5.509,-1.115 10.318,-2.144 10.688,-2.286 0.701,-0.269 7.059,-7.701 7.059,-8.252 0,-0.493 -0.503,-0.405 -16.6,2.896 m 73.8,-0.844 c -5.982,1.222 -5.711,1.095 -5.468,2.551 0.119,0.705 0.336,2.065 0.483,3.021 l 0.269,1.739 1.745,-0.261 c 1.669,-0.251 1.755,-0.214 1.998,0.86 0.954,4.227 0.936,4.195 2.181,3.921 1.037,-0.228 1.188,-0.133 1.396,0.873 0.128,0.621 0.483,2.209 0.789,3.529 1.965,8.476 1.927,8.222 1.45,9.816 -0.667,2.223 -2.185,3.298 -4.183,2.96 -1.516,-0.256 -1.566,-0.229 -1.298,0.679 0.154,0.52 0.38,1.591 0.503,2.381 0.694,4.464 9.737,2.162 11.908,-3.032 1.08,-2.585 0.813,-5.26 -1.351,-13.555 -0.452,-1.733 -0.822,-3.567 -0.822,-4.076 0,-0.775 -0.237,-0.945 -1.46,-1.049 -1.668,-0.142 -1.814,-0.483 -3.17,-7.424 -0.397,-2.035 -0.913,-3.683 -1.146,-3.663 -0.233,0.02 -1.954,0.349 -3.824,0.73 m -281.563002,9.333 c -0.23,1.155 -0.794,4.26 -1.251,6.9 -0.457,2.64 -0.988,5.7 -1.18,6.8 -1.372,7.892 -6.908,39.275 -7.795,44.2 -0.337,1.87 -1.508,8.53 -2.602,14.8 -1.095,6.27 -2.264,12.84 -2.6,14.6 -0.335,1.76 -0.609,3.337 -0.609,3.505 0,0.168 6.433,0.258 14.295,0.2 l 14.295,-0.105 0.283,-1.8 c 0.298,-1.898 1.067,-6.338 2.08,-12 0.335,-1.87 0.987,-5.56 1.45,-8.2 0.463,-2.64 1.242,-7.05 1.732,-9.8 l 0.891,-5 5.355,-0.112 c 6.429,-0.135 6.268,-0.252 5.457,3.972 -0.352,1.837 -1.36,7.48 -2.238,12.54 -1.673,9.638 -2.584,14.705 -3.22,17.92 -0.209,1.056 -0.38,2.093 -0.38,2.305 0,0.242 5.101,0.346 13.695,0.28 l 13.695,-0.105 0.275,-1.8 c 0.151,-0.99 0.736,-4.41 1.301,-7.6 0.564,-3.19 1.467,-8.32 2.007002,-11.4 0.539,-3.08 1.278,-7.22 1.642,-9.2 0.364,-1.98 0.754,-4.416 0.866,-5.414 l 0.204,-1.814 -3.742002,-2.561 c -2.059,-1.409 -4.799,-3.326 -6.089,-4.261 l -2.346,-1.701 2.146,-1.352 c 1.18,-0.744 4.614,-2.78 7.631002,-4.525 3.018,-1.745 5.58,-3.404 5.694,-3.688 0.199,-0.493 1.517,-7.799 3.803,-21.084 0.533,-3.097 0.561,-2.885 -0.482,-3.766 -2.366,-1.998 -11.157002,-9.287 -13.216002,-10.956 l -2.315,-1.878 h -24.156 -24.156 l -0.42,2.1 m 92.563002,1.347 c -2.86,1.856 -7.505,4.839 -10.322,6.63 -5.6,3.561 -5.655,3.62 -6.044,6.523 -0.147,1.1 -0.444,2.9 -0.66,4 -0.216,1.1 -1.285,7.13 -2.376,13.4 -2.172,12.488 -2.71,15.539 -4.163,23.6 -0.536,2.97 -1.532,8.64 -2.215,12.6 -0.683,3.96 -1.338,7.679 -1.455,8.264 -0.236,1.178 -0.38,1.048 11.42,10.233 l 5.786,4.503 15.614,-0.006 15.615,-0.007 4.889,-3.093 c 2.688,-1.702 7.407,-4.686 10.485,-6.631 3.077,-1.946 5.679,-3.836 5.782,-4.2 0.102,-0.365 0.305,-1.473 0.451,-2.463 0.146,-0.99 1.419,-8.298 2.829,-16.239 1.41,-7.941 2.564,-14.736 2.564,-15.1 0,-0.605 -1.496,-0.661 -17.527,-0.661 h -17.526 l -0.473,2.5 c -1.069,5.659 -2.474,13.861 -2.474,14.443 0,0.501 0.609,0.646 3.1,0.74 l 3.1,0.117 -0.062,1.4 c -0.065,1.447 -0.703,5.361 -1.499,9.2 l -0.457,2.2 -6.325,0.11 -6.325,0.111 0.229,-1.111 c 0.218,-1.057 0.818,-4.45 2.034,-11.51 0.303,-1.76 1.017,-5.81 1.587,-9 0.569,-3.19 1.381,-7.78 1.805,-10.2 0.423,-2.42 1.039,-5.93 1.367,-7.8 0.329,-1.87 1.071,-6.1 1.65,-9.4 0.578,-3.3 1.181,-6.63 1.341,-7.4 l 0.29,-1.4 6.337,-0.11 6.336,-0.111 -0.224,1.311 c -0.124,0.72 -0.788,4.531 -1.476,8.468 -0.708,4.049 -1.101,7.309 -0.905,7.505 0.191,0.191 6.535,0.3 14.097,0.242 l 13.749,-0.105 0.305,-1.2 c 0.168,-0.66 0.756,-3.81 1.307,-7 0.551,-3.19 1.277,-7.33 1.613,-9.2 0.336,-1.87 0.615,-3.52 0.619,-3.667 0.006,-0.224 -12.095,-10.253 -15.747,-13.049 -1.148,-0.879 -1.241,-0.884 -17,-0.847 l -15.846,0.036 -5.2,3.374 m 172.104,1.053 c 0.463,0.495 1.028,1.39 1.256,1.99 0.359,0.948 0.608,1.078 1.926,1 l 1.514,-0.09 -0.096,1.57 c -0.236,3.859 -4.299,4.531 -6.355,1.052 -0.533,-0.902 -1.036,-1.211 -2.124,-1.302 -1.407,-0.119 -1.425,-0.142 -1.386,-1.887 0.067,-2.993 3.303,-4.427 5.265,-2.333 m -227.504002,13.6 c 0,0.275 -0.276,1.94 -0.613,3.7 -0.337,1.76 -1.06,5.81 -1.605,9 -0.546,3.19 -1.085,6.21 -1.198,6.711 -0.231,1.029 -11.691,1.274 -11.503,0.246 0.368,-2.015 2.28,-13.077 2.751,-15.912 0.324,-1.956 0.685,-3.711 0.802,-3.9 0.36,-0.583 11.366,-0.433 11.366,0.155 m 35.000002,80.602 c -2.013,0.387 -14.691,2.973 -17.2,3.508 -1.540002,0.328 -4.600002,0.956 -6.800002,1.394 -2.2,0.439 -5.71,1.14 -7.8,1.559 -13.733,2.752 -15.072,2.684 -16.013,-0.81 -0.345,-1.284 -0.593,-1.553 -1.428,-1.553 -0.556,0 -1.898,-0.382 -2.982,-0.848 -1.978,-0.851 -3.977,-0.436 -3.977,0.827 0,1.474 1.165,4.964 2.215,6.635 4.087,6.505 8.284,6.837 30.185,2.386 3.63,-0.738 12.540002,-2.549 19.800002,-4.025 7.26,-1.476 14.718,-2.983 16.573,-3.349 4.827,-0.953 4.7,-1.626 -0.307,-1.626 -4.452,0 -6.504,-0.62 -8.907,-2.693 -1.554,-1.34 -2.23,-1.623 -3.359,-1.405"
         stroke="none"
         fill="#2c7b6d"
         fill-rule="evenodd" />
      <path
         id="path1090-9"
         style="fill:none;stroke:#000000;stroke-width:1px;stroke-linecap:butt;stroke-linejoin:miter;stroke-opacity:1"
         d="m 335.07812,18.632812 c -5.00557,0.135532 -9.75573,1.93724 -14.68314,2.629566 -31.58664,6.142358 -63.15379,12.254603 -94.65887,18.807484 -6.39116,1.311542 -12.78275,2.621032 -19.17361,3.934044 0.003,-3.80599 0.008,-7.611979 0.0117,-11.417968 -44.30979,-0.184168 -88.62143,-0.220798 -132.928046,-0.839147 -6.038959,-0.0738 -12.077918,-0.1476 -18.116877,-0.2214 -2.454533,10.571089 -4.913429,21.141172 -7.365235,31.71289 -6.243658,6.510509 -12.57319,13.017387 -19.874026,18.360843 -4.127529,3.342454 -5.993734,8.881177 -5.567441,14.083496 0.21853,3.435201 1.452766,6.68098 2.094272,10.04116 1.318439,6.15427 2.547879,12.32814 3.872512,18.4816 1.817725,8.67679 3.636428,17.35298 5.494215,26.02118 1.695139,2.5423 3.446509,5.04749 5.160156,7.57813 -5.816318,32.24788 -11.638469,64.49471 -17.457031,96.74219 9.384581,1.02914 18.958264,2.0861 27.723444,5.8222 2.211169,0.9999 4.459968,2.15145 6.11378,3.96732 1.085733,1.29971 1.283933,3.06142 2.223323,4.45266 1.069414,1.8256 2.517304,3.4171 4.1875,4.71094 0.190361,0.13625 0.786068,0.58512 1.158203,0.81641 4.432158,2.9094 9.993223,3.40124 15.139843,2.74653 4.373135,-0.55723 8.646666,-1.68491 12.968145,-2.52911 13.438483,-2.74859 26.864743,-5.56058 40.329893,-8.17546 2.01921,-0.51581 4.11621,-0.30806 6.17891,-0.38535 8.58932,-0.0212 17.17863,-0.0471 25.76797,-0.0668 5.15119,-3.20091 10.23167,-6.53797 15.63477,-9.30859 8.10367,-1.31957 16.09123,-2.50815 24.09017,-4.28022 3.4563,-0.73043 6.89755,-1.63548 10.09306,-3.17367 2.24643,-0.95082 4.41935,-2.13378 6.77323,-2.79492 7.61718,-1.64073 15.25848,-3.17182 22.88567,-4.77102 30.18664,-6.24055 60.37358,-12.48447 90.62872,-18.38063 4.54793,-0.88481 9.13117,-1.58991 13.66824,-2.52639 2.97361,-0.72898 5.94918,-2.04897 7.94489,-4.45206 0.48536,-0.52918 1.03639,-1.41598 1.40821,-2.16211 0.97775,-1.90844 1.63384,-4.18027 3.46475,-5.46288 2.72521,-0.84642 5.48601,-1.78653 8.37525,-1.75221 3.76474,-0.26009 7.63704,-1.0615 10.74964,-3.31256 3.63396,-2.3909 7.58759,-4.38714 10.68812,-7.49872 2.313,-2.23769 4.20169,-5.00565 4.97494,-8.16126 0.28708,-0.8717 0.54198,-1.82448 1.366,-2.34109 2.19664,-1.9118 4.29407,-3.93198 6.28141,-6.0596 2.92512,-2.97812 6.23508,-5.61357 8.76756,-8.95405 2.94678,-4.62546 2.54152,-11.28775 -1.38552,-15.23678 -2.51836,-2.80376 -5.2703,-5.53541 -6.78983,-9.04976 -2.41119,-4.24561 -6.98498,-6.77272 -11.5889,-7.96289 -1.7335,-0.3196 -3.61022,-1.16603 -4.24265,-2.94361 -1.31912,-3.21593 -3.98151,-5.69934 -6.99476,-7.3349 -2.05001,-1.40487 -2.51114,-4.60052 -0.86617,-6.48735 2.0631,-3.04449 3.87508,-6.50803 3.97571,-10.26107 0.0245,-2.40283 -0.84547,-4.7207 -2.10104,-6.73673 -0.56309,-1.04966 -0.35557,-2.32615 0.29686,-3.27854 1.02099,-2.149376 2.26918,-4.095423 3.32884,-6.174841 1.33245,-2.540173 2.90076,-5.051184 3.32097,-7.942142 0.70725,-3.520814 1.1356,-7.346224 3.50968,-10.216985 1.42494,-1.826656 3.24572,-3.491219 3.79516,-5.832856 0.91274,-3.076287 0.18274,-6.601773 -2.01793,-8.967067 -2.70934,-3.21927 -6.66557,-5.034069 -10.55475,-6.401142 -3.02144,-0.884166 -6.16437,-1.500298 -8.95073,-3.025863 -1.89625,-0.788638 -2.84949,-2.839958 -3.05548,-4.779268 -1.14703,-5.082345 -1.78098,-10.521078 -4.85761,-14.893048 -2.30983,-3.363499 -6.17355,-5.608239 -10.25932,-5.837061 -0.90159,-0.08878 -1.86935,-0.130249 -2.6953,-0.479019 -4.54284,-5.166439 -11.37913,-8.192578 -18.26147,-8.040536 z" />
      <path
         id="path1090-9-2"
         style="fill:none;stroke:#000000;stroke-width:1px;stroke-linecap:butt;stroke-linejoin:miter;stroke-opacity:1"
         d="m 334.97656,10.634766 c -6.4294,0.220785 -12.56112,2.394758 -18.89016,3.317135 -33.8779,6.578201 -67.7395,13.230805 -101.51413,20.239505 0.002,-3.191407 0.006,-6.382812 0.01,-9.574218 C 162.4678,24.433473 110.35218,24.283238 58.241992,23.558022 55.225781,23.521103 52.20957,23.484184 49.193359,23.447266 46.420768,35.390019 43.646612,47.33241 40.875,59.275391 35.124036,65.282072 29.121529,71.089927 22.451383,76.077018 c -2.669906,2.380859 -4.701835,5.434294 -6.009977,8.755013 -0.09918,0.271029 -0.370619,0.976355 -0.509765,1.417969 -1.527864,4.624791 -1.638937,9.653036 -0.522539,14.38128 0.753531,3.56141 1.764812,7.17269 2.44929,10.81076 2.897231,13.99576 5.867123,27.98443 8.827155,41.97398 1.401915,2.063 2.801672,4.12746 4.205078,6.18945 -6.130206,33.9807 -12.263238,67.9609 -18.394531,101.94141 8.506337,1.01301 17.08342,1.65918 25.468621,3.4853 3.958467,0.87996 7.844958,2.1924 11.377082,4.20805 2.047326,5.53165 6.287562,10.12216 11.475089,12.87238 5.561376,3.05409 12.134017,3.63857 18.345988,2.89979 0.633943,-0.0651 1.095057,-0.13747 1.788298,-0.23115 4.265674,-0.6558 8.457347,-1.70724 12.692872,-2.52693 13.366336,-2.75411 26.730186,-5.53653 40.131346,-8.10784 3.95725,-0.32081 7.93099,-0.0955 11.8957,-0.18883 6.77239,-0.0197 13.54479,-0.0395 20.31719,-0.0592 5.2872,-3.23763 10.44216,-6.73854 15.95206,-9.57951 6.05031,-1.07641 12.22085,-1.976 18.1518,-3.1488 4.71649,-0.94685 9.45985,-1.92103 13.9837,-3.58544 3.53575,-1.39622 6.89431,-3.36507 10.68904,-3.99514 12.21327,-2.59044 24.43561,-5.06807 36.66897,-7.61149 27.04775,-5.57661 54.09832,-11.14106 81.23415,-16.27293 5.04811,-0.89256 10.35136,-1.67378 14.66717,-4.65569 3.40475,-2.24842 6.08597,-5.55849 7.52773,-9.38034 0.27583,-0.47176 1.07158,-0.3105 1.55898,-0.52457 2.78604,-0.52953 5.66595,-0.37058 8.41942,-1.1098 3.97959,-0.87493 7.67279,-2.74415 10.98133,-5.08886 5.26349,-3.20371 10.58402,-6.80346 13.91354,-12.12685 1.22259,-1.87962 2.14634,-3.93931 2.84391,-6.06707 4.25273,-3.90567 8.22945,-8.09587 12.42288,-12.06313 2.9664,-3.03199 5.35293,-6.79637 6.03834,-11.04038 1.2932,-6.70027 -0.92071,-14.02851 -5.9187,-18.72159 -2.04489,-2.19055 -4.01818,-4.52056 -5.249,-7.27876 -3.41847,-5.55689 -9.29704,-9.21073 -15.48767,-10.94139 -0.5737,-0.23384 -0.70908,-1.02801 -1.10195,-1.49228 -1.39836,-2.27288 -3.31277,-4.15723 -5.30156,-5.91169 1.83152,-3.40454 3.28691,-7.09543 3.52817,-10.99028 0.26817,-3.11648 -0.45113,-6.22241 -1.6581,-9.08174 0.05,-0.55647 0.56204,-1.08095 0.78365,-1.62578 1.97278,-3.701872 4.24744,-7.330255 5.32639,-11.421425 0.63323,-2.71181 0.76753,-5.624116 2.12476,-8.105731 2.2086,-2.784843 4.66444,-5.603647 5.45099,-9.172746 1.68493,-6.250832 -0.42606,-13.345011 -5.27851,-17.639403 -4.62145,-4.418268 -10.73712,-6.830245 -16.8446,-8.376182 -0.97275,-0.188758 -1.98364,-0.610816 -2.59879,-1.380089 -0.40186,-2.014249 -0.79958,-4.088313 -1.28556,-5.990689 -1.30827,-5.383408 -3.53777,-10.797489 -7.71346,-14.597107 -3.44212,-3.191902 -7.92314,-5.229742 -12.5908,-5.730152 -5.97935,-5.533991 -14.08883,-8.719705 -22.25,-8.55664 z" />
      <path
         id="path1090-9-2-2"
         style="fill:none;stroke:#000000;stroke-width:1px;stroke-linecap:butt;stroke-linejoin:miter;stroke-opacity:1"
         d="m 334.91797,2.6347656 c -7.09345,0.2121073 -13.89801,2.4406493 -20.85715,3.5882104 -15.76726,3.0127867 -31.51755,6.133118 -47.267,9.239936 -14.74782,2.925078 -29.48606,5.893284 -44.21374,8.915994 0.003,-2.576823 0.008,-5.153644 0.01,-7.730468 C 165.64045,16.446152 108.68969,16.260944 51.744639,15.478764 48.782232,15.442262 45.819835,15.405029 42.857422,15.369141 39.768308,28.678555 36.677616,41.987603 33.587891,55.296875 28.348735,60.74079 22.74248,65.838252 16.757812,70.451172 8.5808558,77.996814 5.1118962,89.971771 7.2969554,100.79923 c 0.9926508,5.03866 2.3700627,9.99328 3.3087056,15.04362 2.830949,13.59556 5.708729,27.18126 8.579886,40.76848 1.084509,1.59469 2.167889,3.19016 3.251953,4.78515 -6.441293,35.69664 -12.8834973,71.39311 -19.3242188,107.08985 8.5325068,1.14293 17.1207168,1.82212 25.6425778,3.04687 3.858222,0.59549 7.901598,1.20457 11.669922,2.47657 0.933764,0.36821 1.991559,0.62855 2.807529,1.17385 5.020326,9.99578 15.4965,16.84282 26.586054,17.86507 7.52546,0.86892 15.030061,-0.71301 22.348319,-2.3077 14.020607,-2.9126 28.030767,-5.79465 42.070597,-8.5281 2.52263,-0.34176 5.08033,-0.17501 7.61914,-0.24299 8.80408,-0.0112 17.60802,-0.0613 26.41211,-0.0793 5.44413,-3.29679 10.72221,-6.87396 16.32031,-9.9121 10.65251,-1.88566 21.4776,-3.23292 31.76758,-6.70899 3.78684,-1.42539 7.35454,-3.55775 11.41404,-4.14797 34.48628,-7.13405 68.94514,-14.33723 103.5084,-21.08063 6.54257,-1.27605 13.10424,-2.45991 19.63694,-3.78283 5.88286,-1.36651 11.56718,-4.14693 15.69398,-8.63702 1.40841,-1.48463 2.64477,-3.13015 3.69391,-4.8867 3.39043,-0.27315 6.78989,-0.75958 9.99469,-1.94603 4.18273,-1.42448 7.95782,-3.76757 11.61525,-6.20152 5.27279,-3.32526 10.33595,-7.2395 13.88137,-12.44207 1.48603,-2.13213 2.70922,-4.44597 3.65712,-6.86351 4.12808,-4.00792 8.26396,-8.02309 12.31118,-12.11773 4.7371,-5.127 7.64699,-11.99263 7.63763,-19.00718 0.1255,-7.99857 -3.26723,-15.97247 -9.11552,-21.43043 -1.63688,-1.70665 -2.86214,-3.74692 -3.95836,-5.82494 -3.94455,-6.1123 -10.16695,-10.53461 -16.96086,-12.97519 -0.54697,-0.82241 -1.19405,-1.59498 -1.79883,-2.35742 2.08864,-5.62082 2.69935,-11.93018 0.96289,-17.72656 2.60494,-4.647132 5.08163,-9.520731 5.82209,-14.861048 0.25428,-1.229787 0.26601,-2.658987 1.29314,-3.54508 3.08167,-3.753392 5.53435,-8.182867 6.1791,-13.054624 1.36002,-8.760071 -2.12535,-18.119742 -8.98351,-23.764465 -4.85686,-4.268174 -10.85459,-7.034735 -17.02371,-8.823614 -1.49509,-6.903225 -4.03984,-13.845928 -8.9341,-19.088887 -4.24449,-4.613303 -9.98742,-7.821799 -16.13621,-9.036113 -7.21153,-5.8831711 -16.51234,-9.1924444 -25.83008,-9.0332034 z" />
    </g>
  </g>
</svg>
